<?xml version="1.0" standalone="no"?>
<!DOCTYPE svg PUBLIC "-//W3C//DTD SVG 20010904//EN"
 "http://www.w3.org/TR/2001/REC-SVG-20010904/DTD/svg10.dtd">
<svg version="1.0" xmlns="http://www.w3.org/2000/svg"
 width="308.000000pt" height="164.000000pt" viewBox="0 0 308.000000 164.000000"
 preserveAspectRatio="xMidYMid meet">

<g transform="translate(0.000000,164.000000) scale(0.100000,-0.100000)"
fill="#000000" stroke="none">
<path d="M0 1611 c0 -9 129 -25 137 -17 3 3 2 9 -2 15 -7 13 -135 15 -135 2z"/>
<path d="M170 1610 c-13 -9 -13 -10 0 -11 8 -1 19 -1 23 0 4 1 19 2 32 3 14 1
25 6 25 10 0 11 -62 10 -80 -2z"/>
<path d="M959 1468 c-19 -24 -46 -62 -59 -85 -17 -32 -36 -48 -77 -68 -63 -30
-65 -30 -104 -9 -28 14 -30 19 -24 50 5 30 3 35 -17 43 -13 5 -26 7 -30 5 -3
-2 -31 -5 -62 -5 -34 -1 -60 -7 -67 -15 -6 -8 -18 -14 -26 -14 -8 0 -32 -19
-54 -42 -35 -38 -42 -41 -59 -30 -11 6 -29 12 -41 12 -30 0 -78 -31 -85 -55
-4 -11 -17 -34 -30 -52 -13 -17 -24 -39 -24 -47 0 -21 -36 -42 -85 -50 -22 -4
-57 -12 -77 -17 l-38 -10 0 -230 c0 -215 1 -230 18 -225 30 10 115 8 171 -3
40 -8 57 -8 62 0 4 7 23 9 50 5 24 -3 62 -6 84 -7 39 -1 40 -1 8 -8 -37 -7
-33 -21 12 -39 36 -15 106 -4 113 17 3 9 -1 12 -9 9 -8 -3 -23 -1 -34 3 -13 5
9 7 56 6 60 -3 76 0 72 10 -3 7 2 13 10 13 8 0 18 -8 21 -17 5 -13 9 -14 15
-5 4 7 34 14 67 17 90 8 133 15 152 24 9 4 31 16 49 25 33 17 55 19 190 16 77
-2 133 9 178 33 22 12 169 17 226 7 19 -4 44 -3 55 1 16 6 15 8 -8 8 -16 1
-28 5 -28 10 0 5 18 8 40 6 22 -2 42 1 45 6 4 5 39 9 78 10 73 1 64 14 -13 20
-31 2 -32 2 -7 6 73 11 -18 39 -158 48 -49 3 -139 8 -200 11 -60 3 -111 7
-113 9 -2 2 91 4 207 3 206 0 212 1 229 22 16 20 19 21 31 6 17 -21 37 -20 45
0 4 11 10 13 19 7 6 -6 27 -13 45 -16 30 -6 33 -5 27 13 -7 23 7 27 24 6 26
-31 79 16 83 73 2 21 7 30 18 28 9 -1 16 7 18 21 6 39 19 24 26 -30 4 -41 2
-56 -9 -64 -20 -15 -9 -44 16 -44 10 0 19 4 19 9 0 11 59 23 73 14 15 -9 47
-11 42 -3 -6 10 30 42 38 34 3 -3 3 -12 0 -20 -3 -8 0 -14 6 -14 6 0 8 -7 5
-15 -5 -12 2 -15 29 -15 19 0 38 6 40 13 3 6 6 2 6 -9 1 -19 7 -22 38 -22 43
0 74 28 66 58 -4 14 0 20 12 20 12 0 15 -5 10 -20 -7 -21 9 -50 26 -50 5 0 9
8 9 18 0 14 4 12 20 -8 l20 -25 0 23 c0 27 20 29 27 3 5 -18 6 -18 24 -3 10 9
19 22 19 29 0 21 17 15 23 -8 4 -14 -1 -22 -16 -28 l-22 -8 23 -7 c13 -5 26
-5 29 -2 9 9 9 76 1 76 -5 0 -8 7 -8 15 0 8 4 15 9 15 5 0 16 3 25 6 11 4 16
1 16 -11 0 -9 5 -15 12 -13 17 6 22 28 6 28 -7 0 -18 10 -23 23 -8 19 -17 22
-58 21 -33 0 -44 3 -37 10 14 14 13 36 -3 36 -7 0 -14 10 -14 22 -1 13 1 18 5
12 4 -6 16 -16 28 -22 18 -10 23 -8 32 13 17 37 -6 55 -64 49 -25 -2 -51 -7
-57 -11 -7 -4 -20 -6 -29 -5 -11 2 -18 -3 -18 -12 0 -9 -8 -16 -18 -16 -10 0
-22 -3 -26 -7 -3 -4 -15 -7 -25 -8 -25 -2 -16 21 11 28 15 4 19 11 15 27 -3
12 0 23 7 26 7 3 13 11 13 19 0 11 -14 15 -56 16 l-56 1 40 9 c54 11 696 10
669 -1 -16 -6 -20 -15 -17 -32 5 -27 -20 -57 -32 -38 -4 7 -16 3 -33 -10 -20
-16 -26 -29 -25 -60 0 -34 -3 -40 -21 -41 -20 0 -21 -1 -1 -9 l20 -9 -20 -1
c-11 -2 -26 -2 -32 -1 -7 1 -13 -7 -13 -19 0 -17 -6 -20 -50 -20 -30 0 -50 -4
-50 -11 0 -7 12 -10 29 -7 17 2 28 1 25 -3 -2 -4 2 -10 8 -12 10 -4 10 -6 1
-6 -7 -1 -13 -7 -13 -14 0 -7 -10 -17 -22 -22 -34 -15 -32 -32 4 -41 18 -4 39
-7 46 -5 6 1 12 -4 12 -11 0 -9 3 -9 10 2 7 12 12 12 29 -4 11 -10 27 -16 36
-12 9 3 23 0 31 -8 20 -20 17 -28 -6 -21 -11 4 -20 2 -20 -4 0 -6 -7 -11 -15
-11 -8 0 -15 4 -15 9 0 12 -63 21 -74 10 -10 -9 11 -13 47 -10 11 2 17 -5 17
-18 0 -13 -6 -21 -17 -21 -14 0 -14 -2 2 -20 19 -21 11 -26 -15 -10 -11 7 -17
5 -21 -8 -6 -14 -9 -12 -18 12 -9 23 -14 27 -24 17 -8 -8 -9 -16 -1 -29 9 -13
8 -21 -2 -30 -8 -7 -14 -22 -14 -34 0 -19 -4 -20 -46 -14 -54 7 -51 -8 6 -25
22 -7 40 -15 40 -19 0 -16 -15 -19 -30 -5 -14 13 -19 13 -39 -1 -14 -10 -21
-23 -18 -35 3 -11 -1 -20 -12 -22 -9 -3 13 -5 49 -6 74 -1 85 4 85 38 0 13 6
26 14 29 8 3 11 0 7 -7 -10 -16 15 -13 38 4 13 10 15 15 6 15 -7 0 -11 2 -8 5
3 3 13 3 22 -1 15 -6 15 -7 -1 -20 -16 -12 -15 -13 12 -14 17 -1 23 -4 15 -7
-8 -3 -26 -10 -39 -15 -35 -13 -18 -22 21 -10 51 16 109 22 103 11 -4 -5 -19
-9 -35 -9 -39 0 -83 -18 -75 -30 9 -14 58 -12 74 2 11 11 12 10 6 -1 -7 -11
-2 -13 25 -8 18 4 43 7 55 7 19 0 22 5 19 38 -1 20 -3 38 -4 40 -2 1 -3 7 -4
12 0 6 -8 15 -16 20 -12 8 -12 10 5 10 15 0 21 7 22 30 1 16 -2 32 -8 36 -6 4
-6 11 2 20 9 12 9 18 0 27 -9 9 -18 8 -40 -4 -28 -16 -29 -16 -40 7 -7 15 -7
25 0 30 7 4 7 10 0 18 -7 9 -4 17 9 29 25 21 27 21 33 -3 3 -11 12 -20 21 -20
19 0 22 26 4 33 -10 4 -10 7 0 15 10 7 13 51 13 188 1 126 3 172 10 154 l10
-24 29 31 c30 32 30 32 30 157 l0 126 -800 0 c-440 0 -800 -3 -800 -6 0 -4 16
-33 36 -65 l36 -59 -22 -35 c-16 -25 -29 -35 -48 -36 -24 0 -25 -1 -7 -9 17
-7 16 -9 -11 -9 -16 -1 -34 -5 -40 -10 -13 -12 -58 -25 -51 -15 3 5 -5 10 -16
11 -48 3 -76 22 -97 67 -11 25 -20 49 -20 55 0 20 -23 60 -37 65 -8 3 -31 -5
-51 -19 l-36 -24 -12 36 c-17 49 -47 87 -70 91 -12 2 -32 -12 -55 -40z m824
-69 c36 -39 36 -79 -2 -121 -22 -25 -37 -32 -64 -32 -41 0 -82 31 -91 70 -10
38 19 93 56 109 41 18 66 11 101 -26z m283 -4 c17 -27 12 -45 -14 -46 -13 0
-12 -3 5 -11 23 -11 39 -38 23 -38 -6 0 -9 -5 -7 -12 4 -19 -59 -33 -89 -19
-22 10 -24 14 -13 27 8 10 15 12 17 5 2 -6 17 -11 33 -11 22 0 29 5 29 20 0
15 -7 20 -25 20 -16 0 -25 6 -25 15 0 9 9 15 25 15 16 0 25 6 25 15 0 11 -11
15 -41 15 -36 0 -40 2 -29 15 20 24 67 19 86 -10z m140 10 c10 -8 15 -15 10
-15 -5 0 -3 -7 4 -15 9 -11 9 -15 1 -15 -7 0 -10 -4 -6 -9 3 -5 -6 -21 -20
-35 l-26 -26 29 0 c19 0 29 -5 29 -15 0 -12 -13 -15 -59 -15 -70 0 -73 10 -18
57 51 44 54 75 8 73 -18 -1 -37 -1 -43 -1 -18 3 28 31 50 31 12 0 30 -7 41
-15z m105 -1 c17 -21 0 -49 -32 -49 -24 0 -36 23 -25 51 7 19 40 18 57 -2z
m67 4 c-2 -6 -10 -14 -16 -16 -7 -2 -10 2 -6 12 7 18 28 22 22 4z m109 6 c-3
-3 -12 -4 -19 -1 -8 3 -5 6 6 6 11 1 17 -2 13 -5z m73 2 c0 -2 -7 -6 -15 -10
-8 -3 -15 -1 -15 4 0 6 7 10 15 10 8 0 15 -2 15 -4z m-44 -32 c-3 -18 -24 -34
-46 -33 -8 0 -5 4 8 9 12 5 22 16 22 25 0 8 4 15 9 15 5 0 8 -7 7 -16z m47 -1
c-7 -2 -19 -2 -25 0 -7 3 -2 5 12 5 14 0 19 -2 13 -5z m-215 -23 c-7 -11 -16
-20 -21 -20 -4 0 -3 9 3 20 6 11 15 20 20 20 6 0 5 -9 -2 -20z m-471 -7 c3 -7
-4 -10 -19 -7 l-23 5 23 -10 c12 -6 22 -17 22 -25 0 -20 -27 -27 -41 -10 -10
12 -9 13 7 8 19 -5 19 -5 0 10 -11 9 -16 22 -12 31 7 18 37 17 43 -2z m680 1
c-3 -3 -12 -4 -19 -1 -8 3 -5 6 6 6 11 1 17 -2 13 -5z m-166 -27 c19 -14 20
-26 8 -49 -18 -34 -69 -15 -69 25 0 13 -5 17 -16 13 -9 -3 -12 -2 -9 5 4 6 13
8 21 5 7 -3 16 -1 19 4 8 13 27 12 46 -3z m102 -14 c-7 -2 -19 -2 -25 0 -7 3
-2 5 12 5 14 0 19 -2 13 -5z m72 -3 c4 -6 -1 -7 -10 -3 -19 7 -36 -13 -28 -34
3 -8 14 -13 24 -10 11 3 19 1 19 -5 0 -15 -42 -5 -53 14 -8 12 -7 21 2 32 15
18 37 21 46 6z m79 -6 c5 -14 4 -15 -8 -5 -9 8 -21 9 -31 4 -13 -8 -13 -11 -1
-28 12 -17 16 -18 32 -5 15 13 17 13 12 0 -6 -20 -48 -19 -61 2 -8 12 -7 21 2
32 17 21 47 20 55 0z m81 6 c-8 -13 1 -13 24 1 13 9 22 9 37 0 18 -12 18 -12
-1 -7 -27 8 -47 -7 -39 -28 5 -13 13 -16 31 -11 16 4 22 2 18 -5 -8 -13 -42
-13 -50 0 -5 8 -11 8 -20 0 -10 -9 -16 -6 -25 10 -6 11 -15 18 -21 15 -5 -4
-9 1 -9 9 0 9 5 16 10 16 6 0 10 -4 10 -10 0 -5 5 -10 10 -10 6 0 10 7 10 15
0 8 5 15 11 15 5 0 7 -4 4 -10z m111 1 c-4 -5 -1 -11 6 -13 8 -3 6 -7 -5 -11
-12 -5 -17 -1 -17 13 0 11 5 20 11 20 5 0 8 -4 5 -9z m51 -26 c0 -19 -4 -35
-9 -35 -4 0 -8 6 -8 13 0 9 -3 8 -9 -2 -7 -10 -10 -10 -16 -1 -4 7 -3 15 2 19
5 3 12 14 16 24 11 29 24 19 24 -18z m86 28 c4 -3 -1 -11 -10 -18 -11 -8 -13
-14 -5 -19 7 -4 12 -2 12 4 0 6 5 8 10 5 20 -12 9 -30 -19 -31 -28 -1 -28 0
-18 33 10 33 18 39 30 26z m-480 -30 c-7 -2 -19 -2 -25 0 -7 3 -2 5 12 5 14 0
19 -2 13 -5z m-193 -7 c0 -2 -7 -7 -16 -10 -8 -3 -12 -2 -9 4 6 10 25 14 25 6z
m190 -22 c0 -2 -7 -4 -15 -4 -8 0 -15 4 -15 10 0 5 7 7 15 4 8 -4 15 -8 15
-10z m-180 -111 c0 -5 -5 -15 -10 -23 -7 -11 -12 -12 -21 -3 -6 6 -8 16 -5 22
8 12 36 15 36 4z m-23 -113 c-1 -21 -7 -30 -19 -30 -10 0 -18 5 -18 10 0 6 5
10 10 10 6 0 10 9 10 20 0 11 4 20 10 20 5 0 8 -13 7 -30z m636 15 c7 -16 -8
-29 -23 -20 -10 6 -2 35 10 35 4 0 10 -7 13 -15z m-558 -45 c-3 -5 -10 -10
-16 -10 -5 0 -9 5 -9 10 0 6 7 10 16 10 8 0 12 -4 9 -10z m-722 -30 c-3 -11
-9 -20 -14 -20 -5 0 -9 9 -9 20 0 11 6 20 14 20 9 0 12 -7 9 -20z m1187 10 c0
-5 -5 -10 -11 -10 -5 0 -7 5 -4 10 3 6 8 10 11 10 2 0 4 -4 4 -10z m-1267 -37
c-7 -2 -19 -2 -25 0 -7 3 -2 5 12 5 14 0 19 -2 13 -5z m1265 -11 c5 -17 -13
-15 -27 2 -10 12 -9 14 5 12 10 -2 20 -8 22 -14z m-1208 1 c0 -5 -4 -15 -10
-23 -11 -18 -25 -7 -17 15 6 15 27 21 27 8z m10 -123 c0 -11 -5 -20 -11 -20
-5 0 -7 5 -3 11 3 6 0 15 -7 20 -11 7 -10 9 4 9 10 0 17 -8 17 -20z m1267 14
c-3 -3 -12 -4 -19 -1 -8 3 -5 6 6 6 11 1 17 -2 13 -5z m-27 -64 c0 -5 -7 -10
-16 -10 -12 0 -15 -7 -12 -30 3 -16 1 -30 -4 -30 -9 0 -11 41 -2 64 7 17 34
22 34 6z m8 -87 c-5 -25 27 -54 49 -46 16 6 16 5 -1 -12 -18 -19 -19 -19 -41
9 -13 16 -20 36 -18 47 7 24 16 25 11 2z m52 -8 c-7 -8 -16 -12 -21 -9 -13 8
-1 24 18 24 13 0 13 -3 3 -15z m-164 -57 c-6 -4 -15 -8 -21 -8 -5 0 -4 4 3 9
11 6 10 10 -5 16 -17 7 -17 8 2 15 22 8 41 -19 21 -32z m89 2 c3 -5 1 -10 -4
-10 -6 0 -11 5 -11 10 0 6 2 10 4 10 3 0 8 -4 11 -10z m-2442 -17 c-7 -2 -19
-2 -25 0 -7 3 -2 5 12 5 14 0 19 -2 13 -5z m2497 -13 c0 -5 -4 -10 -10 -10 -5
0 -10 5 -10 10 0 6 5 10 10 10 6 0 10 -4 10 -10z"/>
<path d="M1670 1370 c-13 -9 -13 -11 0 -20 9 -6 18 -6 24 0 15 15 -6 31 -24
20z"/>
<path d="M1735 1370 c-10 -16 7 -31 23 -21 10 6 10 10 -2 20 -10 9 -16 9 -21
1z"/>
<path d="M1650 1307 c0 -13 24 -34 48 -41 23 -8 82 20 82 39 0 6 -27 10 -65
10 -36 0 -65 -4 -65 -8z"/>
<path d="M2267 1393 c-13 -12 -7 -23 13 -23 11 0 20 7 20 15 0 15 -21 21 -33
8z"/>
<path d="M2352 1303 c4 -21 33 -25 33 -3 0 8 -8 16 -18 18 -14 3 -18 -1 -15
-15z"/>
<path d="M1275 1300 c-4 -6 6 -10 22 -10 15 0 46 -2 68 -5 l40 -5 -40 10 c-22
6 -50 12 -62 15 -12 3 -25 1 -28 -5z"/>
<path d="M2675 1100 c-3 -5 -2 -10 4 -10 5 0 13 5 16 10 3 6 2 10 -4 10 -5 0
-13 -4 -16 -10z"/>
<path d="M2606 1081 c-11 -17 5 -39 30 -44 18 -3 24 0 24 14 0 11 0 22 1 26 0
4 -5 9 -12 12 -7 2 -10 -2 -6 -12 4 -11 0 -13 -15 -9 -15 4 -17 7 -6 13 9 6 9
9 1 9 -6 0 -14 -4 -17 -9z"/>
<path d="M2647 1004 c-4 -4 -7 -14 -7 -23 0 -11 3 -12 11 -4 6 6 10 16 7 23
-2 6 -7 8 -11 4z"/>
<path d="M2625 930 c6 -9 1 -10 -16 -5 -21 7 -22 6 -7 -9 21 -21 59 -25 66 -7
3 10 0 12 -12 8 -9 -4 -15 -2 -13 5 1 6 -4 13 -12 16 -9 3 -11 0 -6 -8z"/>
<path d="M2603 863 c9 -2 23 -2 30 0 6 3 -1 5 -18 5 -16 0 -22 -2 -12 -5z"/>
<path d="M2690 795 c0 -8 7 -15 16 -15 14 0 14 3 4 15 -7 8 -14 15 -16 15 -2
0 -4 -7 -4 -15z"/>
<path d="M1860 719 c-15 -28 -4 -38 15 -13 17 22 19 34 5 34 -5 0 -14 -9 -20
-21z"/>
<path d="M2495 717 c-4 -10 -5 -21 -1 -24 10 -10 18 4 13 24 -4 17 -4 17 -12
0z"/>
<path d="M2531 714 c0 -11 3 -14 6 -6 3 7 2 16 -1 19 -3 4 -6 -2 -5 -13z"/>
<path d="M2660 720 c0 -5 5 -10 10 -10 6 0 10 5 10 10 0 6 -4 10 -10 10 -5 0
-10 -4 -10 -10z"/>
<path d="M2382 680 c0 -14 2 -19 5 -12 2 6 2 18 0 25 -3 6 -5 1 -5 -13z"/>
<path d="M2410 684 c0 -8 5 -12 10 -9 6 4 8 11 5 16 -9 14 -15 11 -15 -7z"/>
<path d="M2460 680 c0 -5 5 -10 10 -10 6 0 10 5 10 10 0 6 -4 10 -10 10 -5 0
-10 -4 -10 -10z"/>
<path d="M1815 670 c-4 -6 -3 -14 0 -20 9 -15 35 -12 35 4 0 17 -27 29 -35 16z"/>
<path d="M2108 674 c-5 -4 -8 -16 -8 -28 0 -14 3 -17 11 -9 6 6 9 19 7 28 -1
9 -6 13 -10 9z"/>
<path d="M2078 664 c-5 -4 -8 -19 -8 -33 1 -23 2 -24 11 -8 11 19 9 53 -3 41z"/>
<path d="M2330 655 c0 -11 10 -15 33 -14 23 1 26 3 10 6 -13 2 -23 9 -23 14 0
5 -4 9 -10 9 -5 0 -10 -7 -10 -15z"/>
<path d="M1970 635 c0 -14 5 -25 10 -25 6 0 10 11 10 25 0 14 -4 25 -10 25 -5
0 -10 -11 -10 -25z"/>
<path d="M2156 638 c-12 -38 -13 -57 -2 -61 7 -3 12 10 14 34 2 38 -5 52 -12
27z"/>
<path d="M2417 644 c-4 -4 -7 -22 -7 -41 0 -30 -2 -33 -19 -23 -31 16 -51 12
-51 -10 0 -17 7 -20 48 -22 26 -1 66 -2 90 -3 23 -1 45 2 48 7 3 4 -2 8 -10 8
-9 0 -16 4 -16 9 0 5 -9 13 -20 16 -15 5 -20 14 -18 33 2 21 -2 28 -17 30 -12
2 -24 0 -28 -4z"/>
<path d="M2505 640 c-3 -5 1 -10 10 -10 9 0 13 5 10 10 -3 6 -8 10 -10 10 -2
0 -7 -4 -10 -10z"/>
<path d="M1380 596 c0 -31 6 -34 13 -6 3 11 1 23 -4 26 -5 3 -9 -6 -9 -20z"/>
<path d="M2300 610 c0 -5 7 -10 16 -10 8 0 12 5 9 10 -3 6 -10 10 -16 10 -5 0
-9 -4 -9 -10z"/>
<path d="M1340 590 c0 -11 5 -20 10 -20 6 0 10 9 10 20 0 11 -4 20 -10 20 -5
0 -10 -9 -10 -20z"/>
<path d="M1450 590 c0 -11 5 -20 10 -20 6 0 10 9 10 20 0 11 -4 20 -10 20 -5
0 -10 -9 -10 -20z"/>
<path d="M2255 590 c3 -5 18 -10 33 -10 21 0 24 2 12 10 -20 13 -53 13 -45 0z"/>
<path d="M1934 539 c-9 -15 15 -29 51 -29 17 0 41 -3 55 -7 24 -6 23 -5 -6 20
-33 28 -87 36 -100 16z"/>
<path d="M549 535 c-1 -3 -2 -8 -3 -12 -1 -5 -4 -13 -8 -19 -4 -6 -6 -39 -5
-73 1 -34 -3 -65 -9 -69 -5 -4 -9 -14 -9 -22 0 -13 17 -14 100 -12 55 2 102 5
104 8 11 10 -13 17 -61 16 l-53 0 45 10 c70 14 90 27 90 60 0 17 -6 31 -15 35
-20 7 -26 1 -28 -28 -1 -13 -8 -31 -15 -39 -13 -12 -14 -11 -7 10 4 14 9 30
11 35 2 6 -7 15 -20 21 -20 9 -27 8 -40 -8 -9 -10 -16 -25 -16 -33 0 -8 -4
-15 -9 -15 -5 0 -15 -2 -23 -5 -10 -4 -13 10 -11 70 1 42 -2 75 -8 75 -5 0
-10 -2 -10 -5z m41 -175 c0 -5 -5 -10 -11 -10 -5 0 -7 5 -4 10 3 6 8 10 11 10
2 0 4 -4 4 -10z"/>
<path d="M2132 529 c-18 -5 -30 -14 -27 -19 7 -12 -31 -50 -50 -50 -32 0 -13
-19 22 -22 20 -2 38 -8 40 -15 3 -7 -4 -9 -18 -6 -15 4 -20 3 -15 -5 4 -7 15
-13 24 -13 9 -1 4 -4 -13 -8 -21 -4 -31 -13 -33 -29 -3 -19 -9 -22 -48 -22
-28 0 -43 -4 -39 -10 8 -13 60 -13 147 2 55 9 73 9 76 0 5 -15 42 -16 42 -2 0
6 9 10 20 10 28 0 39 49 15 67 -25 17 -50 17 -65 -2 -18 -21 -33 -19 -27 5 4
15 0 20 -14 20 -35 0 -19 19 24 27 47 10 90 5 81 -8 -7 -12 67 -11 85 0 15 10
6 32 -12 30 -25 -3 -37 2 -34 14 1 6 -6 11 -16 11 -13 -2 -16 3 -12 17 7 22
-14 26 -33 7 -9 -9 -12 -9 -12 0 0 14 -60 15 -108 1z m85 -23 c21 -8 47 -17
58 -20 11 -3 0 -3 -24 0 -24 2 -53 11 -64 19 -27 19 -18 19 30 1z m43 -141
c-7 -8 -17 -12 -22 -9 -6 4 -5 10 3 15 22 14 33 10 19 -6z"/>
<path d="M1578 515 c-39 -21 -35 -31 13 -38 54 -7 57 -12 25 -42 -27 -25 -25
-27 14 -27 43 0 50 3 50 20 0 10 -6 24 -12 30 -10 10 -10 15 2 22 13 8 13 11
0 24 -23 23 -62 27 -92 11z"/>
<path d="M2455 520 c-4 -6 5 -10 20 -10 15 0 24 4 20 10 -3 6 -12 10 -20 10
-8 0 -17 -4 -20 -10z"/>
<path d="M1730 510 c-12 -8 -10 -10 8 -10 13 0 20 4 17 10 -7 12 -6 12 -25 0z"/>
<path d="M160 461 c0 -38 -1 -39 -40 -46 -67 -11 -43 -44 33 -45 22 0 27 -4
27 -25 0 -25 -22 -36 -74 -39 -14 -1 -22 -9 -24 -24 -2 -12 -8 -20 -13 -16 -5
3 -22 0 -38 -7 -22 -10 -28 -19 -29 -47 -1 -35 21 -71 33 -52 3 5 24 10 46 10
21 0 39 5 39 10 0 6 -6 10 -12 10 -8 0 -5 7 6 15 11 8 29 15 40 14 20 0 21 -1
1 -8 -17 -7 -17 -8 8 -13 15 -3 27 -1 27 4 0 5 6 3 14 -4 8 -7 11 -17 8 -23
-4 -5 -7 -17 -7 -25 0 -19 -46 -42 -60 -30 -7 6 -34 6 -71 0 -32 -6 -62 -10
-66 -10 -5 0 -8 -5 -8 -11 0 -11 15 -10 105 7 24 5 28 4 18 -7 -10 -10 -9 -16
4 -31 9 -10 23 -18 31 -18 12 0 12 3 -4 15 -10 8 -14 15 -7 15 22 0 66 -21 79
-38 8 -11 13 -12 14 -4 0 6 11 12 25 12 14 0 25 5 25 10 0 6 8 10 19 10 11 0
18 -6 17 -16 0 -9 5 -18 12 -20 7 -1 8 0 3 2 -6 3 -7 14 -1 29 6 16 5 25 -3
29 -7 4 0 4 15 1 15 -3 30 -1 33 5 3 5 11 10 17 10 7 0 6 -6 -2 -15 -9 -11 -9
-15 -1 -15 6 0 14 7 17 15 4 8 15 15 25 15 23 0 23 8 4 34 -8 11 -15 28 -15
37 0 23 -15 32 -40 24 -15 -5 -20 -15 -20 -41 0 -47 -30 -47 -53 1 -9 19 -21
35 -27 35 -5 0 -10 5 -10 11 0 6 9 9 20 6 10 -3 21 0 23 6 5 16 -32 49 -49 43
-8 -3 -14 1 -14 9 0 8 5 15 10 15 6 0 8 13 5 30 -4 23 -2 30 10 30 9 0 13 5
10 10 -4 6 -12 10 -18 9 -27 -3 -36 2 -39 23 -2 16 -12 25 -33 29 -16 4 -25 7
-20 8 17 2 5 71 -11 71 -10 0 -14 -12 -14 -39z m24 -177 c3 -8 2 -12 -4 -9 -6
3 -10 10 -10 16 0 14 7 11 14 -7z m127 -197 c-6 -6 -28 -11 -48 -10 -21 0 -32
-2 -25 -4 6 -3 10 -9 7 -14 -6 -9 -45 11 -45 23 0 6 35 12 93 14 20 1 25 -2
18 -9z"/>
<path d="M2765 490 c3 -5 11 -10 16 -10 6 0 7 5 4 10 -3 6 -11 10 -16 10 -6 0
-7 -4 -4 -10z"/>
<path d="M1157 483 c-4 -3 -7 -15 -7 -25 0 -12 -7 -18 -22 -18 -13 0 -30 -5
-38 -10 -11 -7 -4 -10 26 -10 23 0 46 6 52 13 16 19 5 67 -11 50z"/>
<path d="M1968 462 c-13 -16 -29 -27 -36 -24 -7 2 -11 -2 -10 -10 2 -8 -9 -14
-32 -16 -65 -6 -57 -22 12 -22 46 0 69 4 78 15 7 8 19 15 26 15 8 0 14 6 14
13 0 6 3 22 6 35 9 33 -28 29 -58 -6z"/>
<path d="M2630 481 c0 -5 -9 -13 -21 -16 -27 -9 -20 -16 8 -9 22 6 41 34 23
34 -6 0 -10 -4 -10 -9z"/>
<path d="M2700 478 c0 -4 4 -8 9 -8 6 0 12 4 15 8 3 5 -1 9 -9 9 -8 0 -15 -4
-15 -9z"/>
<path d="M2925 475 c-34 -11 -41 -22 -10 -15 6 1 23 3 39 4 16 0 31 7 34 14 5
15 -11 14 -63 -3z"/>
<path d="M1253 463 c-36 -17 -45 -38 -13 -30 11 3 23 1 26 -4 3 -5 10 -6 16
-3 5 4 30 6 54 6 49 -1 55 6 22 27 -33 21 -68 22 -105 4z"/>
<path d="M2745 450 c3 -5 8 -10 11 -10 2 0 4 5 4 10 0 6 -5 10 -11 10 -5 0 -7
-4 -4 -10z"/>
<path d="M1395 430 c-4 -12 -2 -27 4 -34 9 -11 6 -15 -14 -20 -37 -9 -31 -26
8 -20 17 3 38 7 45 10 6 2 12 -2 12 -8 0 -12 162 -6 194 7 14 6 17 5 12 -3 -4
-7 -3 -12 3 -12 24 0 19 20 -6 25 -15 4 -38 11 -49 17 -24 11 -87 1 -78 -13 3
-5 1 -9 -4 -9 -5 0 -14 12 -20 26 -7 14 -17 22 -22 19 -16 -10 -50 5 -50 21 0
22 -28 17 -35 -6z"/>
<path d="M2218 443 c-10 -2 -18 -9 -18 -14 0 -12 3 -12 36 6 28 14 19 18 -18
8z"/>
<path d="M2680 440 c0 -5 7 -7 15 -4 8 4 15 8 15 10 0 2 -7 4 -15 4 -8 0 -15
-4 -15 -10z"/>
<path d="M2930 440 c-12 -8 -10 -10 8 -10 13 0 20 4 17 10 -7 12 -6 12 -25 0z"/>
<path d="M960 425 c0 -8 -6 -15 -12 -15 -7 0 -18 -11 -25 -25 -11 -25 -10 -25
32 -25 52 0 61 10 43 50 -13 31 -38 41 -38 15z"/>
<path d="M2520 410 c-13 -8 -12 -10 3 -10 9 0 17 5 17 10 0 12 -1 12 -20 0z"/>
<path d="M2626 408 c6 -10 51 -11 57 0 3 4 -10 7 -28 8 -19 0 -32 -3 -29 -8z"/>
<path d="M1176 401 c-3 -4 -16 -6 -29 -4 -14 3 -31 -2 -40 -12 -15 -14 -15
-18 -2 -39 15 -22 14 -24 -9 -40 -14 -9 -35 -16 -46 -16 -20 0 -50 -21 -50
-34 0 -9 232 4 260 15 14 5 37 10 52 11 23 2 25 5 16 23 -6 11 -16 23 -21 27
-7 4 -6 12 3 22 7 9 10 20 6 24 -4 4 -18 -6 -31 -22 l-23 -29 -7 32 c-8 38
-64 67 -79 42z m34 -35 c0 -8 -7 -16 -15 -20 -10 -4 -15 1 -15 14 0 11 7 20
15 20 8 0 15 -6 15 -14z m37 -82 c-3 -3 -12 -4 -19 -1 -8 3 -5 6 6 6 11 1 17
-2 13 -5z"/>
<path d="M2430 400 c0 -5 6 -10 14 -10 8 0 18 5 21 10 3 6 -3 10 -14 10 -12 0
-21 -4 -21 -10z"/>
<path d="M2558 403 c6 -2 18 -2 25 0 6 3 1 5 -13 5 -14 0 -19 -2 -12 -5z"/>
<path d="M2893 403 c9 -2 23 -2 30 0 6 3 -1 5 -18 5 -16 0 -22 -2 -12 -5z"/>
<path d="M2760 390 c0 -5 5 -10 10 -10 6 0 10 5 10 10 0 6 -4 10 -10 10 -5 0
-10 -4 -10 -10z"/>
<path d="M2808 393 c6 -2 18 -2 25 0 6 3 1 5 -13 5 -14 0 -19 -2 -12 -5z"/>
<path d="M2660 380 c0 -13 11 -13 30 0 12 8 11 10 -7 10 -13 0 -23 -4 -23 -10z"/>
<path d="M2464 368 c3 -18 46 -23 60 -8 8 10 4 11 -21 7 -17 -4 -34 -2 -37 4
-2 5 -3 4 -2 -3z"/>
<path d="M2551 372 c-6 -2 -11 -8 -11 -14 0 -6 7 -7 18 -3 9 4 27 7 40 6 12 0
22 4 22 9 0 10 -43 11 -69 2z"/>
<path d="M2385 354 c-26 -12 -27 -14 -5 -9 14 2 33 5 43 5 9 0 17 5 17 10 0
14 -19 12 -55 -6z"/>
<path d="M377 348 c-7 -4 14 -8 46 -8 31 0 57 4 57 9 0 10 -86 9 -103 -1z"/>
<path d="M2760 350 c0 -5 5 -10 10 -10 6 0 10 5 10 10 0 6 -4 10 -10 10 -5 0
-10 -4 -10 -10z"/>
<path d="M2810 350 c0 -5 7 -10 16 -10 8 0 12 5 9 10 -3 6 -10 10 -16 10 -5 0
-9 -4 -9 -10z"/>
<path d="M2574 338 c-4 -6 -6 -36 -5 -65 l2 -53 -40 -6 c-47 -7 -55 -24 -12
-24 28 0 90 17 103 29 9 8 17 89 10 113 -5 20 -46 25 -58 6z"/>
<path d="M820 330 c0 -5 7 -10 15 -10 8 0 15 5 15 10 0 6 -7 10 -15 10 -8 0
-15 -4 -15 -10z"/>
<path d="M1930 330 c0 -5 5 -10 11 -10 5 0 7 5 4 10 -3 6 -8 10 -11 10 -2 0
-4 -4 -4 -10z"/>
<path d="M630 300 c0 -5 7 -10 15 -10 8 0 15 5 15 10 0 6 -7 10 -15 10 -8 0
-15 -4 -15 -10z"/>
<path d="M2935 280 c-29 -4 -41 -10 -44 -25 -2 -11 -11 -25 -21 -32 -12 -8
-15 -21 -12 -42 5 -35 10 -36 81 -19 l51 11 0 53 c0 29 -3 54 -7 56 -5 2 -26
1 -48 -2z"/>
<path d="M10 269 c0 -5 5 -7 10 -4 6 3 10 8 10 11 0 2 -4 4 -10 4 -5 0 -10 -5
-10 -11z"/>
<path d="M1425 260 c3 -5 12 -10 20 -10 8 0 17 5 20 10 4 6 -5 10 -20 10 -15
0 -24 -4 -20 -10z"/>
<path d="M2175 250 c3 -5 15 -10 26 -10 11 0 17 5 14 10 -3 6 -15 10 -26 10
-11 0 -17 -4 -14 -10z"/>
<path d="M385 240 c-3 -5 -1 -10 4 -10 6 0 11 5 11 10 0 6 -2 10 -4 10 -3 0
-8 -4 -11 -10z"/>
<path d="M658 243 c7 -3 16 -2 19 1 4 3 -2 6 -13 5 -11 0 -14 -3 -6 -6z"/>
<path d="M677 228 c-6 -4 -33 -10 -59 -13 -72 -10 -58 -23 20 -18 49 3 63 2
52 -6 -8 -6 -30 -11 -47 -11 -18 0 -33 -4 -33 -8 0 -11 60 -9 77 1 7 4 25 5
40 1 26 -6 27 -6 9 9 -18 13 -14 15 50 19 38 3 71 3 73 2 2 -2 -4 -13 -13 -23
-18 -20 -15 -41 6 -41 6 0 8 9 5 19 -3 12 1 22 10 25 8 3 11 10 8 16 -3 5 1
10 10 10 9 0 13 -4 10 -10 -3 -5 1 -10 9 -10 19 0 28 14 21 32 -5 11 -30 14
-121 14 -64 -1 -121 -4 -127 -8z"/>
<path d="M1145 230 c3 -5 13 -10 21 -10 8 0 14 5 14 10 0 6 -9 10 -21 10 -11
0 -17 -4 -14 -10z"/>
<path d="M1365 220 c-3 -6 1 -7 9 -4 18 7 21 14 7 14 -6 0 -13 -4 -16 -10z"/>
<path d="M2390 218 c0 -11 22 -10 39 1 10 7 7 9 -12 8 -15 -1 -27 -5 -27 -9z"/>
<path d="M1225 210 c3 -5 8 -10 11 -10 2 0 4 5 4 10 0 6 -5 10 -11 10 -5 0 -7
-4 -4 -10z"/>
<path d="M2330 210 c20 -13 43 -13 35 0 -3 6 -16 10 -28 10 -18 0 -19 -2 -7
-10z"/>
<path d="M1488 203 c-16 -2 -28 -8 -28 -13 0 -5 14 -5 31 0 30 9 53 22 33 19
-5 -1 -21 -4 -36 -6z"/>
<path d="M490 184 c0 -14 3 -14 15 -4 8 7 15 14 15 16 0 2 -7 4 -15 4 -8 0
-15 -7 -15 -16z"/>
<path d="M1265 190 c-3 -5 1 -10 9 -10 9 0 16 5 16 10 0 6 -4 10 -9 10 -6 0
-13 -4 -16 -10z"/>
<path d="M1630 190 c-18 -12 -2 -12 25 0 13 6 15 9 5 9 -8 0 -22 -4 -30 -9z"/>
<path d="M528 173 c7 -3 16 -2 19 1 4 3 -2 6 -13 5 -11 0 -14 -3 -6 -6z"/>
<path d="M1106 171 c15 -14 54 -23 54 -13 0 5 -10 12 -22 16 -33 8 -44 8 -32
-3z"/>
<path d="M1070 160 c-12 -8 -10 -10 8 -10 13 0 20 4 17 10 -7 12 -6 12 -25 0z"/>
<path d="M1215 160 c-3 -5 1 -10 9 -10 9 0 16 5 16 10 0 6 -4 10 -9 10 -6 0
-13 -4 -16 -10z"/>
<path d="M880 150 c0 -5 7 -10 15 -10 8 0 15 5 15 10 0 6 -7 10 -15 10 -8 0
-15 -4 -15 -10z"/>
<path d="M990 150 c0 -5 7 -10 15 -10 8 0 15 5 15 10 0 6 -7 10 -15 10 -8 0
-15 -4 -15 -10z"/>
<path d="M58 138 c9 -9 15 -9 24 0 9 9 7 12 -12 12 -19 0 -21 -3 -12 -12z"/>
<path d="M1890 140 c0 -5 7 -10 15 -10 8 0 15 5 15 10 0 6 -7 10 -15 10 -8 0
-15 -4 -15 -10z"/>
<path d="M473 125 c0 -8 6 -15 13 -15 8 0 11 6 8 15 -4 8 -9 15 -13 15 -4 0
-8 -7 -8 -15z"/>
<path d="M508 133 c7 -3 16 -2 19 1 4 3 -2 6 -13 5 -11 0 -14 -3 -6 -6z"/>
<path d="M808 133 c7 -3 16 -2 19 1 4 3 -2 6 -13 5 -11 0 -14 -3 -6 -6z"/>
<path d="M2490 129 c0 -5 5 -7 10 -4 6 3 10 8 10 11 0 2 -4 4 -10 4 -5 0 -10
-5 -10 -11z"/>
<path d="M2661 119 c-41 -10 -78 -16 -82 -14 -4 3 -22 -2 -40 -10 l-34 -14 55
5 c56 6 200 34 200 39 0 12 -36 9 -99 -6z"/>
<path d="M868 123 c7 -3 16 -2 19 1 4 3 -2 6 -13 5 -11 0 -14 -3 -6 -6z"/>
<path d="M2004 119 c-8 -13 13 -36 23 -24 5 4 2 10 -5 12 -6 3 -10 9 -6 14 3
5 3 9 0 9 -3 0 -8 -5 -12 -11z"/>
<path d="M908 106 c-10 -7 -18 -19 -18 -26 0 -9 -12 -11 -42 -6 -43 6 -91 -14
-74 -31 4 -5 13 0 20 10 24 32 52 20 47 -20 -1 -7 5 -13 14 -13 9 0 15 7 13
17 -2 10 5 19 20 22 13 3 24 11 25 16 1 6 5 9 9 8 4 -2 5 4 2 11 -4 10 0 13
14 9 11 -2 23 0 26 6 10 16 -35 13 -56 -3z"/>
<path d="M1760 101 c0 -4 11 -6 25 -3 14 2 25 6 25 8 0 2 -11 4 -25 4 -14 0
-25 -4 -25 -9z"/>
<path d="M478 83 c6 -2 18 -2 25 0 6 3 1 5 -13 5 -14 0 -19 -2 -12 -5z"/>
<path d="M950 81 c0 -15 16 -22 35 -15 13 5 14 8 3 15 -18 12 -38 11 -38 0z"/>
<path d="M1673 83 c4 -3 2 -12 -4 -20 -9 -10 -7 -13 8 -13 11 0 22 3 26 6 6 7
-17 34 -29 34 -4 0 -4 -3 -1 -7z"/>
<path d="M2887 56 c-78 -23 -104 -36 -74 -36 27 0 160 39 171 50 15 15 -9 12
-97 -14z"/>
<path d="M81 43 c-10 -26 -10 -27 4 -9 8 11 15 23 15 28 0 15 -7 8 -19 -19z"/>
<path d="M1290 60 c0 -5 5 -10 10 -10 6 0 10 5 10 10 0 6 -4 10 -10 10 -5 0
-10 -4 -10 -10z"/>
<path d="M943 39 c-1 -10 4 -19 12 -19 22 0 27 18 7 29 -14 8 -18 6 -19 -10z"/>
<path d="M1125 50 c-8 -13 15 -13 35 0 12 8 11 10 -7 10 -12 0 -25 -4 -28 -10z"/>
<path d="M878 43 c7 -3 16 -2 19 1 4 3 -2 6 -13 5 -11 0 -14 -3 -6 -6z"/>
<path d="M115 30 c-3 -5 -1 -10 4 -10 6 0 11 5 11 10 0 6 -2 10 -4 10 -3 0 -8
-4 -11 -10z"/>
<path d="M600 30 c0 -5 5 -10 11 -10 5 0 7 5 4 10 -3 6 -8 10 -11 10 -2 0 -4
-4 -4 -10z"/>
<path d="M1380 30 c-11 -7 -7 -10 18 -10 17 0 32 5 32 10 0 13 -30 13 -50 0z"/>
<path d="M1525 30 c-3 -5 1 -10 10 -10 9 0 13 5 10 10 -3 6 -8 10 -10 10 -2 0
-7 -4 -10 -10z"/>
</g>
</svg>
