<?xml version="1.0" standalone="no"?>
<!DOCTYPE svg PUBLIC "-//W3C//DTD SVG 20010904//EN"
 "http://www.w3.org/TR/2001/REC-SVG-20010904/DTD/svg10.dtd">
<svg version="1.0" xmlns="http://www.w3.org/2000/svg"
 width="310.000000pt" height="163.000000pt" viewBox="0 0 310.000000 163.000000"
 preserveAspectRatio="xMidYMid meet">

<g transform="translate(0.000000,163.000000) scale(0.100000,-0.100000)"
fill="#000000" stroke="none">
<path d="M716 1593 c9 -40 32 -73 57 -82 41 -16 171 -23 201 -11 16 6 91 11
167 11 99 0 139 3 143 12 3 8 10 6 20 -7 16 -20 16 -20 31 0 11 14 17 16 23 7
8 -13 183 -14 175 0 -2 4 6 7 19 8 142 4 209 2 211 -5 2 -5 17 -5 35 2 19 6
32 7 32 1 0 -5 7 -9 15 -9 8 0 15 5 15 10 0 16 32 12 52 -7 17 -15 18 -15 18
1 0 14 9 17 48 16 26 -1 52 -1 57 0 6 1 20 1 32 1 11 -1 24 3 28 9 5 8 11 8
21 -1 11 -9 20 -9 37 -1 90 45 158 49 192 11 9 -9 23 -15 30 -13 8 3 16 -4 20
-17 l8 -23 17 22 c11 13 25 20 33 16 8 -3 18 -1 22 5 3 6 16 11 28 11 20 0 67
38 67 54 0 3 -419 6 -930 6 l-930 0 6 -27z"/>
<path d="M2630 1610 c0 -5 7 -7 15 -4 8 4 15 8 15 10 0 2 -7 4 -15 4 -8 0 -15
-4 -15 -10z"/>
<path d="M685 1520 c3 -5 11 -10 16 -10 6 0 7 5 4 10 -3 6 -11 10 -16 10 -6 0
-7 -4 -4 -10z"/>
<path d="M2078 1513 c7 -3 16 -2 19 1 4 3 -2 6 -13 5 -11 0 -14 -3 -6 -6z"/>
<path d="M760 1490 c0 -5 5 -10 11 -10 5 0 7 5 4 10 -3 6 -8 10 -11 10 -2 0
-4 -4 -4 -10z"/>
<path d="M1767 1489 c7 -7 15 -10 18 -7 3 3 -2 9 -12 12 -14 6 -15 5 -6 -5z"/>
<path d="M1480 1465 c0 -3 18 -32 41 -65 l40 -59 -35 -61 c-20 -34 -36 -63
-36 -66 0 -2 84 -4 187 -4 l187 0 -65 -63 c-67 -65 -134 -149 -185 -229 -28
-46 -30 -47 -79 -48 -69 0 -97 -9 -93 -29 2 -11 18 -18 48 -22 25 -3 41 -7 35
-9 -22 -5 -31 -7 -50 -8 -18 -2 -20 -7 -17 -37 6 -47 -14 -45 -23 3 -5 20 -9
42 -10 47 -13 55 -64 204 -90 260 -37 81 -72 118 -107 113 -40 -5 -89 -118
-127 -291 -5 -21 -10 -40 -12 -42 -2 -2 -35 -8 -73 -13 l-69 -9 -81 82 c-125
126 -234 167 -343 131 -60 -20 -145 -93 -198 -170 -35 -51 -41 -56 -76 -56
-25 0 -41 6 -48 17 -8 15 -11 15 -25 4 -13 -11 -22 -11 -40 -3 -13 6 -27 8
-31 4 -4 -4 -26 -7 -48 -7 l-42 0 -3 -152 c-2 -137 -1 -153 15 -161 16 -7 94
-9 118 -2 6 2 18 0 28 -5 12 -5 22 -2 30 9 9 12 23 16 50 13 31 -3 42 -11 68
-50 38 -57 124 -137 176 -163 26 -13 58 -19 103 -19 97 1 163 36 266 140 l82
83 39 -9 c21 -5 52 -9 70 -9 29 0 32 -4 42 -42 31 -131 43 -167 71 -225 41
-82 69 -92 115 -41 35 38 88 165 131 318 29 101 48 137 42 82 -3 -36 11 -51
52 -53 14 -1 5 -5 -20 -8 -37 -5 -46 -10 -48 -29 -3 -18 1 -23 15 -22 10 1 43
2 74 1 48 -1 57 -4 66 -23 21 -47 146 -205 206 -261 40 -38 92 -74 147 -100
83 -41 87 -42 190 -42 86 0 116 4 164 23 154 60 295 170 455 356 l33 39 112 1
111 1 0 195 0 195 -111 0 -111 0 -40 50 c-55 68 -175 182 -252 238 l-63 47
291 0 c276 0 291 -1 291 -18 0 -32 13 -33 42 -5 28 27 28 27 28 155 l0 128
-805 0 c-443 0 -805 -2 -805 -5z m333 -66 c38 -41 37 -89 -3 -122 -16 -14 -39
-28 -49 -32 -30 -9 -80 21 -98 59 -21 44 -8 83 38 114 41 28 73 23 112 -19z
m281 -1 c8 -13 8 -23 -1 -37 -10 -16 -8 -22 7 -36 19 -18 19 -18 -6 -41 -27
-26 -54 -30 -85 -13 -30 16 -13 28 31 22 36 -5 40 -3 40 16 0 16 -6 21 -25 21
-16 0 -25 6 -25 15 0 9 9 15 25 15 16 0 25 6 25 15 0 11 -11 15 -41 15 -36 0
-40 2 -29 16 17 20 69 15 84 -8z m109 0 c4 -19 3 -62 -2 -125 -1 -7 -5 -13
-11 -13 -5 0 -10 25 -10 55 0 30 -4 55 -10 55 -5 0 -10 -4 -10 -10 0 -5 -7 -7
-16 -3 -13 5 -10 11 12 34 33 35 40 36 47 7z m88 15 c8 -49 4 -58 -26 -58 -31
0 -43 20 -31 51 5 14 55 20 57 7z m67 -5 c-2 -6 -10 -14 -16 -16 -7 -2 -10 2
-6 12 7 18 28 22 22 4z m110 5 c-11 -3 -18 -14 -18 -29 0 -29 20 -32 27 -4 5
19 23 29 23 13 -1 -16 -28 -43 -44 -43 -12 0 -16 9 -16 35 0 30 3 35 23 34 16
-1 18 -2 5 -6z m72 3 c0 -2 -7 -6 -15 -10 -8 -3 -15 -1 -15 4 0 6 7 10 15 10
8 0 15 -2 15 -4z m-7 -33 c-18 -7 -16 -21 5 -26 13 -4 11 -5 -5 -6 -17 -1 -23
5 -23 19 0 13 6 20 18 19 10 0 12 -3 5 -6z m-193 -6 c0 -2 -10 -12 -21 -23
-22 -19 -22 -19 -10 4 10 18 31 31 31 19z m-432 -25 c2 -8 -2 -10 -15 -6 -16
6 -16 5 2 -9 16 -13 17 -17 6 -31 -17 -20 -27 -20 -35 0 -5 12 -2 15 11 10 16
-5 16 -4 -1 8 -11 9 -16 21 -12 31 7 19 37 17 44 -3z m472 -31 c15 -28 -21
-71 -47 -55 -10 6 -19 21 -21 33 -4 24 -22 29 -22 6 0 -8 -5 -15 -10 -15 -7 0
-7 7 0 21 7 11 18 18 25 15 8 -3 17 -1 20 4 10 17 44 11 55 -9z m100 -5 c0 -2
-9 -6 -20 -9 -11 -3 -20 -1 -20 4 0 5 9 9 20 9 11 0 20 -2 20 -4z m76 -7 c4
-8 9 -8 17 0 14 14 44 14 52 1 4 -7 -2 -9 -18 -5 -19 5 -25 2 -30 -14 -5 -22
13 -33 41 -25 9 2 7 -1 -6 -7 -16 -9 -26 -9 -34 -1 -8 8 -15 8 -28 0 -34 -22
-75 17 -50 47 15 18 46 20 56 4z m150 2 c-3 -5 1 -12 10 -15 8 -3 12 -10 9
-16 -12 -19 27 -24 41 -5 12 16 14 16 14 3 0 -21 -37 -33 -55 -18 -9 8 -15 8
-20 0 -4 -7 -16 -1 -31 16 -26 28 -25 46 1 24 12 -10 15 -10 15 4 0 9 5 16 11
16 5 0 8 -4 5 -9z m62 1 c8 -6 2 -9 -17 -9 -17 0 -28 4 -25 9 7 10 25 10 42 0z
m75 -12 c9 33 24 22 23 -15 0 -19 -4 -35 -8 -35 -5 0 -8 4 -8 10 0 5 -7 7 -15
4 -10 -4 -15 0 -15 11 0 9 -4 13 -10 10 -6 -3 -10 4 -10 17 l1 23 18 -22 c18
-22 19 -22 24 -3z m117 4 c0 -2 -7 -4 -15 -4 -8 0 -15 4 -15 10 0 5 7 7 15 4
8 -4 15 -8 15 -10z m-487 -21 c-7 -2 -19 -2 -25 0 -7 3 -2 5 12 5 14 0 19 -2
13 -5z m467 -5 c0 -9 4 -8 10 2 5 8 10 13 11 10 0 -3 2 -12 3 -20 3 -10 -5
-15 -24 -16 -22 -1 -26 3 -23 18 6 20 23 25 23 6z m-660 -2 c0 -2 -7 -7 -16
-10 -8 -3 -12 -2 -9 4 6 10 25 14 25 6z m200 -22 c0 -2 -9 -4 -20 -4 -11 0
-20 4 -20 9 0 5 9 7 20 4 11 -3 20 -7 20 -9z m-56 -84 c52 -37 109 -86 170
-146 51 -50 126 -136 126 -144 0 -4 -239 -8 -531 -9 l-530 -1 18 31 c38 65
151 196 217 251 l69 58 202 0 202 0 57 -40z m-1134 -56 c26 -42 69 -155 84
-226 l6 -28 -72 -1 c-40 0 -95 -3 -121 -5 l-48 -5 7 28 c9 38 25 49 87 58 47
7 49 9 22 15 -16 3 -38 3 -47 -2 -28 -13 -38 -9 -38 17 0 50 64 195 87 195 2
0 17 -21 33 -46z m-620 -87 c53 -20 135 -79 190 -140 l50 -55 -49 -7 c-78 -11
-373 -8 -403 4 -17 6 -38 7 -60 0 -56 -16 -61 -13 -41 22 44 75 151 164 215
179 47 11 59 11 98 -3z m728 -212 c-11 -11 -184 -24 -223 -17 -37 6 -34 7 35
13 110 8 194 10 188 4z m920 -2 c-98 -2 -258 -2 -355 0 -98 1 -18 2 177 2 195
0 275 -1 178 -2z m637 -131 c-4 -4 -12 1 -19 11 -6 10 -19 28 -28 39 -10 12
-18 27 -18 35 0 8 16 -7 36 -32 19 -26 32 -50 29 -53z m-2017 -2 c0 -52 -12
-68 -20 -26 -6 32 2 87 13 81 4 -3 8 -28 7 -55z m106 25 c9 -14 13 -25 8 -25
-5 0 -14 11 -20 25 -6 14 -10 25 -8 25 2 0 11 -11 20 -25z m-4 -56 c-7 -11
-14 -18 -17 -15 -3 3 0 12 7 21 18 21 23 19 10 -6z m1885 -25 c-33 -49 -35
-50 -35 -33 0 16 50 82 57 75 2 -2 -8 -21 -22 -42z m-1538 -78 c4 -5 -21 -6
-56 -2 -35 3 -81 6 -102 6 -22 0 -39 3 -39 8 0 10 187 -1 197 -12z m1001 -1
c3 -3 -64 -5 -149 -5 -85 0 -148 4 -142 8 13 8 283 5 291 -3z m-420 -2 c-32
-2 -84 -2 -115 0 -32 2 -6 3 57 3 63 0 89 -1 58 -3z m-1538 -13 c82 7 458 5
466 -3 9 -9 -87 -109 -124 -128 -14 -8 -36 -23 -49 -35 -89 -82 -228 -33 -350
123 -39 49 -41 57 -10 47 12 -4 42 -6 67 -4z m842 -31 c48 -1 92 -5 98 -9 21
-13 -66 -248 -103 -279 -12 -10 -19 -7 -36 15 -28 35 -65 158 -57 188 4 16 1
26 -9 30 -9 3 -15 18 -15 36 0 25 3 30 18 26 9 -3 56 -6 104 -7z m636 -21 c5
-7 12 -22 16 -33 3 -13 4 -10 2 7 -3 25 0 27 48 33 89 11 567 -1 576 -15 5 -9
9 -8 13 3 4 11 24 15 76 15 39 0 73 -3 75 -7 6 -10 -102 -132 -174 -196 -30
-28 -57 -53 -60 -56 -3 -3 -25 -19 -50 -36 -122 -83 -231 -114 -322 -93 -66
16 -144 50 -183 81 -63 51 -134 122 -161 162 -16 23 -34 47 -40 52 -7 6 -23
29 -38 52 l-25 41 118 1 c84 1 121 -2 129 -11z"/>
<path d="M1700 1370 c-12 -7 -12 -12 -2 -22 9 -9 15 -9 24 0 8 8 9 15 2 22 -5
5 -15 6 -24 0z"/>
<path d="M1765 1370 c-9 -15 4 -30 20 -23 8 3 15 9 15 13 0 12 -29 20 -35 10z"/>
<path d="M1680 1310 c1 -24 53 -53 80 -45 21 7 50 32 50 43 0 4 -29 7 -65 7
-36 0 -65 -2 -65 -5z"/>
<path d="M2243 1385 c0 -8 9 -15 19 -15 10 0 18 7 18 15 0 8 -8 15 -18 15 -10
0 -19 -7 -19 -15z"/>
<path d="M2330 1305 c-10 -12 -9 -16 5 -21 19 -8 40 9 31 25 -10 15 -21 14
-36 -4z"/>
<path d="M2513 1302 c-20 -12 7 -45 30 -36 21 8 22 30 1 38 -19 7 -16 7 -31
-2z"/>
<path d="M2017 1036 c-15 -22 -15 -24 3 -29 22 -6 30 0 30 24 0 28 -16 31 -33
5z"/>
<path d="M2100 1045 c0 -18 -16 -20 -23 -2 -3 6 -6 2 -6 -10 -1 -18 5 -23 24
-23 14 0 28 0 33 -1 17 -1 12 31 -7 41 -17 9 -21 8 -21 -5z"/>
<path d="M2210 1034 c0 -8 5 -12 10 -9 6 4 8 11 5 16 -9 14 -15 11 -15 -7z"/>
<path d="M1947 906 c-5 -13 0 -16 26 -15 21 1 25 3 12 6 -11 3 -23 10 -26 15
-3 5 -9 3 -12 -6z"/>
<path d="M728 903 c7 -3 16 -2 19 1 4 3 -2 6 -13 5 -11 0 -14 -3 -6 -6z"/>
<path d="M721 464 c0 -11 3 -14 6 -6 3 7 2 16 -1 19 -3 4 -6 -2 -5 -13z"/>
<path d="M1200 422 c0 -16 26 -21 57 -12 20 6 23 9 8 9 -11 1 -30 4 -42 7 -13
4 -23 2 -23 -4z"/>
<path d="M1950 446 c0 -15 4 -25 9 -22 10 7 9 31 -2 42 -4 4 -7 -5 -7 -20z"/>
<path d="M1997 331 c3 -12 9 -19 13 -16 5 3 12 1 15 -5 5 -8 11 -8 20 0 7 6
30 10 51 8 29 -2 39 1 42 14 3 14 -6 16 -57 16 -34 -1 -61 -5 -61 -11 0 -5 -6
-4 -14 2 -12 10 -13 8 -9 -8z"/>
<path d="M2202 331 c4 -13 18 -16 19 -4 0 4 -5 9 -11 12 -7 2 -11 -2 -8 -8z"/>
<path d="M1937 324 c-4 -4 -7 -17 -7 -28 1 -19 1 -20 11 -3 11 19 8 43 -4 31z"/>
<path d="M20 1400 c0 -5 7 -10 16 -10 8 0 12 5 9 10 -3 6 -10 10 -16 10 -5 0
-9 -4 -9 -10z"/>
<path d="M3001 1114 c0 -11 3 -14 6 -6 3 7 2 16 -1 19 -3 4 -6 -2 -5 -13z"/>
<path d="M1037 944 c-15 -15 -6 -22 26 -21 17 1 31 7 30 12 -3 12 -46 19 -56
9z"/>
<path d="M2960 451 c0 -5 7 -11 15 -15 8 -3 15 -1 15 3 0 5 -7 11 -15 15 -8 3
-15 1 -15 -3z"/>
<path d="M1060 440 c-8 -5 -18 -6 -22 -4 -4 3 -8 -1 -8 -10 0 -8 6 -16 13 -19
20 -6 47 4 47 19 0 18 -13 24 -30 14z"/>
<path d="M2945 261 c3 -5 1 -12 -5 -16 -5 -3 -10 -17 -10 -30 0 -18 5 -23 20
-22 11 1 20 5 20 10 0 5 9 7 20 4 17 -4 20 0 20 29 0 32 -2 34 -36 34 -19 0
-33 -4 -29 -9z"/>
<path d="M24 68 c1 -32 5 -44 18 -46 13 -2 15 2 11 19 -6 22 -7 22 -14 3 -5
-14 -8 -8 -11 24 l-5 42 1 -42z"/>
</g>
</svg>
