<?xml version="1.0" standalone="no"?>
<!DOCTYPE svg PUBLIC "-//W3C//DTD SVG 20010904//EN"
 "http://www.w3.org/TR/2001/REC-SVG-20010904/DTD/svg10.dtd">
<svg version="1.0" xmlns="http://www.w3.org/2000/svg"
 width="310.000000pt" height="161.000000pt" viewBox="0 0 310.000000 161.000000"
 preserveAspectRatio="xMidYMid meet">

<g transform="translate(0.000000,161.000000) scale(0.100000,-0.100000)"
fill="#000000" stroke="none">
<path d="M1518 1603 c7 -3 16 -2 19 1 4 3 -2 6 -13 5 -11 0 -14 -3 -6 -6z"/>
<path d="M1580 1599 c-23 -8 -23 -8 5 -5 34 5 139 -39 130 -54 -8 -12 2 -12
86 0 36 5 79 10 97 12 17 1 28 6 26 10 -3 4 4 8 15 8 11 0 23 4 26 10 8 13 65
5 75 -10 5 -7 29 -13 56 -13 79 -1 243 13 271 24 14 5 28 7 31 5 4 -5 -12 -13
-63 -32 -17 -6 -18 -8 -3 -11 23 -6 78 24 78 42 0 11 11 15 45 13 25 0 48 2
52 6 12 12 -141 4 -156 -8 -11 -8 -15 -8 -18 2 -7 19 -93 16 -93 -3 0 -17 -16
-20 -25 -5 -4 6 -10 8 -15 5 -5 -3 -11 -1 -15 5 -8 13 -569 12 -605 -1z"/>
<path d="M280 1591 c0 -6 17 -12 38 -14 20 -2 -38 -2 -131 1 -115 2 -167 0
-167 -7 0 -6 5 -11 10 -11 6 0 10 -5 10 -11 0 -6 -6 -9 -14 -6 -12 5 -14 -19
-12 -153 1 -88 5 -163 9 -166 4 -4 8 17 9 47 1 33 4 16 7 -46 7 -114 4 -145
-14 -145 -8 0 -15 -24 -19 -66 -8 -75 -7 -375 1 -416 5 -25 7 -26 52 -21 56 6
53 -3 -4 -11 -22 -3 -41 -5 -42 -6 -2 0 -3 -5 -3 -10 0 -12 78 -9 98 3 7 5 10
19 7 35 -4 23 -4 24 4 7 5 -11 10 -15 10 -8 1 12 45 21 131 26 26 2 44 8 43
14 -1 6 11 13 27 15 35 5 41 -8 8 -15 -13 -2 3 -5 35 -6 42 -1 59 -5 64 -16 3
-9 4 -18 2 -20 -3 -2 -74 -11 -159 -21 -85 -9 -159 -20 -163 -24 -5 -4 -4 -17
2 -29 9 -16 18 -19 44 -15 49 8 178 35 213 43 20 5 37 4 48 -4 19 -14 11 -24
-17 -20 -9 2 -15 -1 -11 -6 3 -5 16 -9 30 -9 39 0 28 -19 -16 -26 -22 -4 -43
-11 -46 -16 -4 -6 9 -7 32 -3 25 3 35 2 29 -4 -10 -9 -303 -84 -377 -96 -25
-4 -38 -11 -38 -22 0 -9 6 -13 14 -10 11 4 16 -3 19 -26 4 -31 4 -31 5 6 2 29
6 37 21 37 10 0 41 7 67 15 43 12 205 52 288 70 26 5 28 4 17 -9 -11 -13 -11
-16 0 -16 11 0 11 -3 -1 -11 -12 -9 -11 -10 5 -6 11 3 29 8 40 12 13 5 17 5
10 -2 -15 -15 -249 -93 -417 -139 l-68 -19 0 -112 0 -113 280 0 280 0 1 153
c1 83 4 179 8 212 6 53 7 43 14 -79 4 -77 7 -172 7 -213 0 -66 2 -73 20 -73
19 0 20 7 20 180 0 99 4 180 8 180 5 0 9 -35 10 -77 0 -43 1 -124 1 -180 l1
-103 519 0 c381 0 520 3 523 11 3 9 10 9 26 0 13 -7 37 -11 55 -9 25 2 32 7
30 23 -1 11 4 23 10 27 8 5 4 10 -11 14 -23 7 -25 25 -4 32 7 2 12 -3 12 -12
0 -10 9 -16 25 -16 17 0 25 5 25 18 0 15 10 18 66 20 43 2 63 -1 59 -8 -3 -6
0 -7 9 -4 9 3 16 2 16 -4 0 -5 -13 -12 -30 -14 -16 -3 -30 -1 -30 4 0 4 -7 8
-15 8 -9 0 -15 -9 -15 -24 0 -14 -5 -28 -10 -31 -6 -3 -10 -10 -10 -15 0 -5
21 0 47 11 25 11 54 18 62 16 13 -4 12 -5 -2 -6 -10 0 -15 -5 -12 -11 3 -6 -1
-7 -9 -4 -9 3 -16 1 -16 -4 0 -6 -12 -12 -27 -14 -16 -2 12 -5 60 -6 60 -1 86
2 81 10 -4 5 0 14 7 19 8 5 -2 6 -26 2 -36 -6 -39 -5 -26 10 24 30 88 16 76
-15 -4 -9 -2 -19 4 -23 7 -4 8 1 4 12 -6 17 -5 17 13 2 13 -11 42 -17 93 -18
67 -2 72 -1 58 13 -8 9 -27 16 -41 16 -40 0 -39 17 2 24 52 8 64 8 57 -4 -12
-20 15 -50 45 -50 23 0 30 4 30 20 0 13 7 20 20 20 13 0 23 10 29 33 10 30 10
29 8 -18 -2 -48 -1 -50 26 -53 17 -2 27 1 27 9 0 10 3 10 12 1 16 -16 68 -16
68 0 0 9 3 9 12 0 9 -9 70 -12 215 -12 l203 0 -2 195 -2 195 -93 0 c-55 0 -93
-4 -93 -10 0 -5 -14 -10 -30 -10 -28 0 -30 2 -20 20 13 25 5 40 -21 40 -34 0
-58 18 -52 39 6 22 42 34 77 25 13 -3 27 -1 30 5 11 17 26 13 20 -4 -4 -10 0
-15 11 -15 10 0 15 -5 12 -13 -4 -10 2 -13 19 -9 13 2 21 8 18 13 -3 5 4 9 15
9 11 0 23 4 26 10 3 5 18 10 33 9 26 0 26 -1 5 -9 -25 -10 -30 -29 -11 -48 9
-9 8 -12 -5 -12 -9 0 -17 5 -17 11 0 8 -17 10 -54 6 -34 -3 -72 0 -101 9 -35
10 -46 11 -42 1 2 -6 14 -14 28 -15 13 -2 31 -10 39 -17 9 -8 50 -14 110 -17
l95 -3 2 100 c1 55 -1 181 -6 280 -4 99 -9 148 -9 109 -2 -55 -6 -76 -22 -94
-17 -20 -24 -22 -43 -12 -12 6 -33 14 -47 18 -23 6 -23 6 -7 -10 9 -10 17 -18
17 -19 0 -1 -20 -1 -45 1 -29 3 -45 0 -45 -7 0 -8 -5 -9 -19 -1 -24 12 -61 13
-61 2 0 -10 -45 -32 -65 -32 -8 0 -15 6 -15 13 0 7 -15 13 -35 14 -19 1 -35
-3 -35 -8 0 -6 -4 -8 -9 -5 -5 4 -11 1 -13 -6 -3 -8 -25 -12 -68 -11 -68 2
-96 -6 -64 -18 25 -10 -106 -12 -903 -13 l-673 -1 0 58 c0 32 5 67 10 78 8 14
7 19 -2 20 -7 1 -22 3 -33 4 -11 2 -47 6 -80 11 -33 4 -69 13 -80 20 -11 8
-15 14 -9 14 5 0 10 9 10 20 0 11 -3 20 -6 20 -5 0 -4 43 7 417 l4 152 -28 7
c-15 4 -31 11 -34 17 -15 22 -110 43 -167 36 -31 -3 -58 -2 -60 3 -5 11 -92
10 -92 -1z m-6 -39 c2 -4 -4 -8 -14 -8 -10 0 -16 4 -14 8 3 4 9 8 14 8 5 0 11
-4 14 -8z m-78 -144 c-1 -75 -3 -83 -21 -85 -16 -2 -17 -1 -3 5 13 5 16 21 16
77 0 80 1 85 6 85 2 0 3 -37 2 -82z m-43 -160 c3 -49 1 -88 -4 -88 -5 0 -9 44
-8 98 1 115 6 111 12 -10z m157 85 c-8 -3 -18 -12 -23 -19 -4 -7 -14 -11 -22
-8 -8 4 -15 1 -15 -5 0 -6 14 -11 32 -11 42 0 33 -6 -19 -13 l-43 -5 0 34 0
34 53 -1 c28 0 45 -3 37 -6z m277 -30 c-3 -10 -5 -4 -5 12 0 17 2 24 5 18 2
-7 2 -21 0 -30z m-388 0 c-1 -5 -1 -12 1 -18 1 -5 1 -44 0 -86 l-1 -75 58 2
c32 1 64 2 71 3 7 1 13 17 13 39 1 23 3 28 6 15 8 -42 23 -24 23 27 0 28 3 50
8 50 7 0 8 -21 11 -162 1 -39 5 -58 14 -58 9 0 13 30 14 110 2 121 15 170 28
104 6 -32 9 -36 18 -24 35 45 40 21 42 -215 0 -41 3 -50 18 -49 21 2 23 -14 2
-22 -8 -4 -12 -10 -9 -15 3 -5 10 -7 15 -4 5 4 9 1 9 -5 0 -6 -8 -10 -17 -8
-11 2 -18 12 -17 26 0 12 -3 22 -8 22 -4 0 -8 -6 -8 -12 0 -10 -3 -9 -9 1 -5
7 -14 10 -20 7 -6 -4 -11 -3 -11 3 0 6 -8 8 -17 4 -14 -4 -15 -3 -7 6 21 23
-6 61 -43 61 -31 0 -33 -2 -33 -34 l0 -33 -56 2 c-64 2 -50 -14 15 -18 23 -1
41 -7 41 -12 0 -9 -66 -2 -140 14 -3 1 1 5 8 9 8 6 -14 14 -60 23 -40 7 -76
13 -79 12 -3 -1 -6 4 -6 12 0 10 5 11 18 4 28 -15 42 -11 36 11 -3 12 0 20 7
20 7 0 10 16 7 46 -2 25 2 51 8 57 8 8 11 8 11 -1 0 -7 4 -12 8 -12 4 0 9 17
11 38 2 20 4 46 5 57 1 11 -2 25 -7 32 -10 14 0 53 14 53 5 0 8 -3 8 -7z m151
-13 c0 -13 -5 -18 -14 -14 -8 3 -12 12 -9 20 8 21 23 17 23 -6z m130 10 c0 -5
-7 -10 -16 -10 -8 0 -12 5 -9 10 3 6 10 10 16 10 5 0 9 -4 9 -10z m-90 -10 c0
-5 -4 -10 -10 -10 -5 0 -10 5 -10 10 0 6 5 10 10 10 6 0 10 -4 10 -10z m197
-97 c-2 -16 -4 -3 -4 27 0 30 2 43 4 28 2 -16 2 -40 0 -55z m-490 45 c-3 -8
-6 -5 -6 6 -1 11 2 17 5 13 3 -3 4 -12 1 -19z m250 -20 c-3 -7 -5 -2 -5 12 0
14 2 19 5 13 2 -7 2 -19 0 -25z m-250 -55 c-3 -10 -5 -4 -5 12 0 17 2 24 5 18
2 -7 2 -21 0 -30z m495 -253 c-6 -9 -22 25 -17 38 3 8 6 57 7 110 l2 97 6
-120 c3 -66 4 -122 2 -125z m-489 183 c8 -39 -7 -49 -32 -22 -19 21 -19 23 -3
35 25 19 29 17 35 -13z m-58 -91 c-3 -3 -11 0 -18 7 -9 10 -8 11 6 5 10 -3 15
-9 12 -12z m135 -42 c20 -6 21 -8 5 -8 -11 0 -29 3 -40 8 -25 11 1 11 35 0z
m-37 -27 c-7 -2 -21 -2 -30 0 -10 3 -4 5 12 5 17 0 24 -2 18 -5z m54 -9 c-3
-3 -12 -4 -19 -1 -8 3 -5 6 6 6 11 1 17 -2 13 -5z m-70 -10 c-3 -3 -12 -4 -19
-1 -8 3 -5 6 6 6 11 1 17 -2 13 -5z m141 -1 c-10 -2 -26 -2 -35 0 -10 3 -2 5
17 5 19 0 27 -2 18 -5z m-33 -13 c27 -7 28 -8 5 -8 -14 -1 -43 3 -65 7 l-40 9
35 0 c19 0 49 -4 65 -8z m82 4 c-3 -3 -12 -4 -19 -1 -8 3 -5 6 6 6 11 1 17 -2
13 -5z m33 -18 c0 -9 -50 -12 -62 -5 -8 6 1 9 25 9 20 0 37 -2 37 -4z m106
-10 c22 -22 17 -30 -9 -13 -14 9 -29 12 -36 7 -7 -4 -23 -5 -35 -2 -20 6 -10
10 57 21 5 0 15 -5 23 -13z m224 -10 c0 -2 -9 -6 -20 -9 -11 -3 -18 -1 -14 4
5 9 34 13 34 5z m73 -13 c-13 -2 -33 -2 -45 0 -13 2 -3 4 22 4 25 0 35 -2 23
-4z m70 -10 c-7 -2 -21 -2 -30 0 -10 3 -4 5 12 5 17 0 24 -2 18 -5z m-190 -50
c-5 -65 -13 -67 -13 -5 0 29 4 52 9 52 4 0 7 -21 4 -47z m2357 3 c0 -3 -4 -8
-10 -11 -5 -3 -10 -1 -10 4 0 6 5 11 10 11 6 0 10 -2 10 -4z m-416 -62 c3 -8
2 -12 -4 -9 -6 3 -10 10 -10 16 0 14 7 11 14 -7z m63 0 c-3 -3 -12 -4 -19 -1
-8 3 -5 6 6 6 11 1 17 -2 13 -5z m-2001 -29 c1 -8 -2 -17 -7 -21 -5 -3 -9 7
-9 22 0 27 12 26 16 -1z m2181 19 c-3 -3 -12 -4 -19 -1 -8 3 -5 6 6 6 11 1 17
-2 13 -5z m-2153 -79 c17 -17 42 -20 51 -5 3 6 -4 11 -17 11 -20 1 -20 2 -4 6
11 3 25 -2 32 -11 9 -12 24 -16 60 -14 37 2 49 0 49 -11 0 -16 -1 -16 -120
-26 l-80 -8 -1 37 c0 39 6 44 30 21z m169 8 c-7 -2 -21 -2 -30 0 -10 3 -4 5
12 5 17 0 24 -2 18 -5z m-616 -25 c-3 -8 -6 -5 -6 6 -1 11 2 17 5 13 3 -3 4
-12 1 -19z m193 12 c0 -5 -2 -10 -4 -10 -3 0 -8 5 -11 10 -3 6 -1 10 4 10 6 0
11 -4 11 -10z m-150 -10 c0 -5 -7 -10 -16 -10 -8 0 -12 5 -9 10 3 6 10 10 16
10 5 0 9 -4 9 -10z m2570 -90 c0 -5 -4 -10 -10 -10 -5 0 -10 5 -10 10 0 6 5
10 10 10 6 0 10 -4 10 -10z m-283 -22 c8 -6 41 -11 74 -11 52 0 59 -3 59 -20
0 -15 -3 -17 -14 -8 -8 7 -37 10 -74 7 -53 -3 -62 -1 -67 15 -7 21 -20 25 -30
9 -4 -6 -13 -9 -20 -8 -8 2 -15 -1 -17 -7 -2 -5 7 -11 19 -13 12 -2 27 -10 33
-18 16 -19 1 -18 -50 2 -32 13 -38 19 -29 30 6 8 9 20 6 28 -5 12 4 14 45 10
28 -2 57 -9 65 -16z m73 12 c0 -5 -4 -10 -10 -10 -5 0 -10 5 -10 10 0 6 5 10
10 10 6 0 10 -4 10 -10z m65 -81 c5 -5 -5 -4 -23 2 -17 6 -32 13 -32 16 0 7
43 -8 55 -18z m-83 3 c-22 -3 -23 -4 -5 -17 17 -14 17 -14 -4 -15 -13 0 -23 5
-23 10 0 6 -10 15 -22 19 -18 7 -11 9 27 8 28 0 40 -2 27 -5z m-106 -20 c6 -4
11 -14 11 -22 0 -8 2 -19 3 -25 1 -5 2 -83 1 -172 -1 -108 -5 -163 -12 -163
-6 0 -8 8 -4 19 4 13 0 23 -12 30 -17 10 -17 10 1 11 19 0 19 0 0 22 -10 12
-13 18 -5 13 11 -6 13 -3 9 13 -3 12 -1 23 6 25 7 3 3 11 -9 21 -19 15 -19 15
-1 16 15 0 16 3 6 15 -7 9 -8 15 -2 15 6 0 8 19 5 48 -3 26 -6 55 -6 65 -1 10
-13 25 -27 32 l-25 14 30 1 c17 1 24 4 18 7 -14 5 -18 23 -5 23 4 0 12 -4 18
-8z m161 2 c-3 -3 -12 -4 -19 -1 -8 3 -5 6 6 6 11 1 17 -2 13 -5z m-2003 -19
c3 -8 1 -15 -4 -15 -6 0 -10 7 -10 15 0 8 2 15 4 15 2 0 6 -7 10 -15z m2026
-21 c0 -11 -5 -14 -16 -10 -9 3 -25 6 -35 6 -11 0 -17 5 -14 10 11 17 65 12
65 -6z m64 -20 c21 -8 21 -34 0 -34 -10 0 -14 6 -11 14 4 9 -1 17 -11 19 -9 3
-12 5 -5 6 6 0 18 -2 27 -5z m-2019 -14 c-3 -5 -12 -10 -18 -10 -7 0 -6 4 3
10 19 12 23 12 15 0z m1886 -10 c5 0 9 -11 9 -25 0 -19 5 -25 21 -25 11 0 17
-5 14 -10 -4 -6 -10 -8 -15 -5 -4 3 -10 -1 -13 -9 -7 -19 9 -24 61 -18 26 2
41 9 39 16 -2 6 -14 10 -26 9 -11 -2 -21 2 -21 7 0 13 23 13 55 -2 25 -11 30
-24 19 -52 -5 -12 -10 -13 -26 -5 -10 6 -40 9 -66 8 -48 -3 -97 15 -87 31 3 5
13 7 23 4 16 -5 16 -5 0 9 -22 17 -24 39 -3 31 8 -4 15 -2 15 4 0 5 -9 12 -20
15 -11 3 -20 11 -20 17 0 7 7 10 16 6 9 -3 20 -6 25 -6z m373 -24 c-2 -6 -17
-11 -32 -10 -39 3 -39 3 -13 18 28 15 52 11 45 -8z m-234 -17 c0 -6 -4 -7 -10
-4 -5 3 -10 11 -10 16 0 6 5 7 10 4 6 -3 10 -11 10 -16z m-757 -59 c-7 -8 -22
24 -16 34 4 5 10 1 13 -10 4 -10 6 -21 3 -24z m-1188 10 c3 -5 1 -10 -4 -10
-6 0 -11 5 -11 10 0 6 2 10 4 10 3 0 8 -4 11 -10z m1183 -22 c9 -8 16 -8 24 0
6 6 19 7 32 3 28 -11 88 -2 79 12 -3 6 -1 7 5 3 18 -11 14 -36 -5 -37 -10 -1
-44 -1 -75 -1 -44 -1 -58 -4 -58 -15 0 -9 6 -13 15 -9 8 3 26 1 40 -4 14 -5
27 -6 30 0 3 5 15 7 27 5 12 -3 27 0 34 6 8 7 24 7 46 0 l33 -9 -30 -1 c-28
-2 -29 -3 -12 -16 11 -8 31 -11 50 -8 19 3 44 -2 61 -11 16 -8 33 -13 38 -10
4 3 8 0 8 -5 0 -6 7 -11 15 -11 8 0 15 -5 15 -11 0 -7 -9 -9 -22 -5 -13 3 -36
6 -51 6 -16 0 -26 4 -22 10 3 6 2 10 -4 10 -5 0 -12 -4 -16 -10 -4 -6 -15 -6
-31 0 -14 6 -36 10 -50 10 -14 0 -24 6 -24 14 0 11 -18 14 -79 14 -65 0 -79
-2 -74 -14 3 -8 0 -14 -7 -14 -6 0 -8 5 -5 10 10 16 -26 24 -56 13 -23 -9 -29
-8 -29 2 0 16 -22 25 -63 25 -30 1 -67 19 -67 34 0 4 9 2 20 -4 12 -6 33 -10
48 -8 21 2 26 8 25 25 -2 18 3 22 35 25 39 3 78 -6 100 -24z m820 20 c14 -14
16 -48 2 -48 -5 0 -9 10 -7 23 1 16 -3 22 -15 21 -10 -1 -15 2 -12 7 7 12 18
11 32 -3z m-1188 -28 c0 -5 -9 -10 -21 -10 -11 0 -17 5 -14 10 3 6 13 10 21
10 8 0 14 -4 14 -10z m50 0 c0 -5 -6 -10 -14 -10 -8 0 -18 5 -21 10 -3 6 3 10
14 10 12 0 21 -4 21 -10z m1007 -21 c26 -1 39 -4 28 -6 -11 -3 -23 -10 -27
-17 -6 -8 -10 -7 -17 3 -5 7 -14 10 -20 7 -20 -13 -11 -24 23 -28 46 -5 80 8
72 27 -5 13 -2 13 19 -1 23 -15 37 -33 15 -19 -5 3 -17 2 -26 -3 -14 -8 -14
-12 7 -31 12 -11 18 -21 11 -21 -6 0 -13 4 -16 9 -9 14 -61 21 -92 11 l-29 -8
35 -1 c19 -1 42 -6 50 -12 11 -7 3 -9 -29 -7 -64 4 -63 -18 1 -27 l53 -9 -60
-6 c-60 -6 -95 3 -95 26 0 7 9 10 23 7 21 -4 22 -4 3 11 -11 9 -23 16 -28 16
-4 0 -8 5 -8 11 0 6 9 8 20 4 11 -4 20 -2 20 4 0 6 -4 11 -10 11 -5 0 -14 9
-20 21 -11 19 -10 20 10 9 12 -6 24 -9 27 -6 3 3 -6 11 -21 17 -14 7 -26 18
-26 26 0 11 5 11 30 -2 16 -8 51 -16 77 -16z m-225 -29 c3 -16 1 -30 -4 -30
-4 0 -8 14 -8 30 0 17 2 30 4 30 2 0 6 -13 8 -30z m-1227 -1 c-3 -4 -13 -5
-22 -2 -12 5 -15 2 -10 -10 7 -19 -8 -23 -19 -5 -9 14 23 38 42 31 8 -3 12 -9
9 -14z m1595 -4 c0 -8 -4 -15 -8 -15 -5 0 -9 7 -9 15 0 8 4 15 9 15 4 0 8 -7
8 -15z m-1410 -15 c0 -5 -6 -10 -14 -10 -8 0 -18 5 -21 10 -3 6 3 10 14 10 12
0 21 -4 21 -10z m155 -19 c-14 -14 -17 -14 -25 -1 -11 17 6 31 27 23 12 -5 12
-8 -2 -22z m98 22 c-7 -2 -19 -2 -25 0 -7 3 -2 5 12 5 14 0 19 -2 13 -5z
m-598 -13 c-3 -5 -13 -10 -21 -10 -8 0 -14 5 -14 10 0 6 9 10 21 10 11 0 17
-4 14 -10z m230 0 c-3 -5 -13 -10 -21 -10 -8 0 -14 5 -14 10 0 6 9 10 21 10
11 0 17 -4 14 -10z m730 0 c3 -5 1 -10 -4 -10 -6 0 -11 5 -11 10 0 6 2 10 4
10 3 0 8 -4 11 -10z m-1195 -70 c0 -5 -7 -10 -15 -10 -8 0 -15 -4 -15 -10 0
-5 -4 -10 -10 -10 -28 0 1 30 38 39 1 1 2 -3 2 -9z m84 1 c4 -5 -3 -7 -14 -4
-23 6 -26 13 -6 13 8 0 17 -4 20 -9z m166 -1 c0 -5 -2 -10 -4 -10 -3 0 -8 5
-11 10 -3 6 -1 10 4 10 6 0 11 -4 11 -10z m-76 -15 c3 -8 1 -15 -4 -15 -6 0
-10 7 -10 15 0 8 2 15 4 15 2 0 6 -7 10 -15z m374 -5 c-13 -21 -38 -27 -38
-10 0 9 28 29 43 30 4 0 2 -9 -5 -20z m142 10 c0 -5 -7 -10 -16 -10 -8 0 -12
5 -9 10 3 6 10 10 16 10 5 0 9 -4 9 -10z m-260 -15 c0 -8 -4 -15 -10 -15 -5 0
-7 7 -4 15 4 8 8 15 10 15 2 0 4 -7 4 -15z m175 -3 c-3 -3 -11 0 -18 7 -9 10
-8 11 6 5 10 -3 15 -9 12 -12z m244 14 c-2 -2 -22 -6 -44 -9 -28 -5 -34 -4
-20 3 19 8 73 14 64 6z m918 -7 c10 -10 39 -16 103 -20 25 -1 18 -4 -25 -9
-60 -6 -90 2 -99 27 -6 16 6 17 21 2z m-1707 -9 c13 -8 13 -10 -2 -10 -9 0
-20 5 -23 10 -8 13 5 13 25 0z m155 -10 c-27 -12 -43 -12 -25 0 8 5 22 9 30 9
10 0 8 -3 -5 -9z m1438 -4 c4 -10 1 -13 -9 -9 -7 3 -14 9 -14 14 0 14 17 10
23 -5z"/>
<path d="M235 1319 c-4 -6 -5 -12 -2 -15 2 -3 7 2 10 11 7 17 1 20 -8 4z"/>
<path d="M350 1120 c0 -16 5 -30 10 -30 6 0 10 14 10 30 0 17 -4 30 -10 30 -5
0 -10 -13 -10 -30z"/>
<path d="M165 1110 c3 -5 8 -10 11 -10 2 0 4 5 4 10 0 6 -5 10 -11 10 -5 0 -7
-4 -4 -10z"/>
<path d="M296 1094 c-7 -17 0 -34 14 -34 5 0 7 7 4 15 -4 8 -1 15 5 15 6 0 11
5 11 10 0 16 -27 11 -34 -6z"/>
<path d="M160 1065 c0 -8 4 -15 10 -15 5 0 7 7 4 15 -4 8 -8 15 -10 15 -2 0
-4 -7 -4 -15z"/>
<path d="M201 1064 c0 -11 3 -14 6 -6 3 7 2 16 -1 19 -3 4 -6 -2 -5 -13z"/>
<path d="M310 1015 c0 -8 4 -15 10 -15 5 0 7 7 4 15 -4 8 -8 15 -10 15 -2 0
-4 -7 -4 -15z"/>
<path d="M1920 240 c0 -5 4 -10 9 -10 6 0 13 5 16 10 3 6 -1 10 -9 10 -9 0
-16 -4 -16 -10z"/>
<path d="M1961 224 c-1 -5 -14 -9 -31 -8 -20 1 -30 -3 -30 -12 0 -8 6 -11 15
-8 8 4 15 1 15 -6 0 -9 4 -9 13 -2 6 6 15 11 20 11 9 1 10 8 4 24 -3 6 -6 7
-6 1z"/>
<path d="M1870 205 c0 -8 5 -15 10 -15 6 0 10 7 10 15 0 8 -4 15 -10 15 -5 0
-10 -7 -10 -15z"/>
<path d="M1511 1395 l41 -65 -41 -65 -40 -65 769 0 c740 0 770 -1 770 -18 0
-32 13 -33 42 -5 28 27 28 27 28 155 l0 128 -805 0 -804 0 40 -65z m259 20
c82 -43 78 -136 -7 -172 -31 -13 -38 -12 -66 5 -68 39 -72 116 -8 159 40 27
43 27 81 8z m285 -88 c1 -58 -2 -77 -12 -77 -9 0 -13 16 -13 55 0 55 0 55 -27
49 l-28 -7 30 32 c16 17 34 30 39 28 6 -2 11 -38 11 -80z m91 0 c0 -57 -3 -77
-13 -77 -9 0 -13 16 -13 55 0 55 0 55 -27 49 l-28 -7 30 32 c16 17 34 30 39
28 6 -2 11 -37 12 -80z m87 69 c12 -31 1 -51 -29 -51 -30 0 -42 20 -30 51 7
18 52 18 59 0z m77 9 c0 -2 -9 -9 -20 -15 -16 -9 -18 -8 -14 5 5 13 34 22 34
10z m97 -1 c-3 -3 -12 -4 -19 -1 -8 3 -5 6 6 6 11 1 17 -2 13 -5z m70 0 c-3
-3 -12 -4 -19 -1 -8 3 -5 6 6 6 11 1 17 -2 13 -5z m-54 -51 c-24 -18 -43 -16
-43 5 0 13 2 14 9 3 11 -17 31 -6 31 17 0 15 2 15 10 2 7 -11 5 -19 -7 -27z
m57 21 c0 -2 -7 -4 -15 -4 -8 0 -15 4 -15 10 0 5 7 7 15 4 8 -4 15 -8 15 -10z
m-208 -13 c-8 -4 -13 -12 -12 -17 1 -5 -4 -10 -10 -12 -9 -3 -9 1 -1 17 7 11
17 21 24 21 8 0 8 -3 -1 -9z m-375 -33 c2 -36 -17 -51 -42 -31 -19 15 -19 15
5 9 24 -7 24 -6 6 8 -22 18 -14 49 11 44 11 -2 18 -14 20 -30z m583 16 c0 -2
-7 -4 -15 -4 -8 0 -15 4 -15 10 0 5 7 7 15 4 8 -4 15 -8 15 -10z m-162 -34 c9
-15 10 -26 2 -40 -19 -36 -62 -21 -72 25 -3 17 -6 15 -21 -12 -10 -18 -22 -33
-27 -33 -5 0 0 16 12 36 12 21 26 33 34 30 7 -3 16 -1 19 4 10 17 40 11 53
-10z m102 -4 c0 -2 -9 -6 -20 -9 -11 -3 -20 -1 -20 4 0 5 9 9 20 9 11 0 20 -2
20 -4z m64 -5 c4 -5 -3 -7 -14 -4 -16 4 -20 0 -20 -21 0 -39 33 -33 56 9 13
23 55 27 62 5 4 -13 3 -13 -11 -2 -10 9 -22 10 -32 5 -13 -8 -13 -11 -1 -28
12 -16 16 -17 30 -6 11 9 16 10 16 2 0 -17 -30 -26 -49 -14 -11 7 -23 7 -38 0
-38 -17 -69 23 -41 51 14 14 35 16 42 3z m163 2 c-4 -3 1 -12 11 -19 16 -12
16 -13 0 -19 -10 -4 -15 -11 -12 -16 3 -5 1 -9 -5 -9 -6 0 -15 10 -22 21 -9
17 -13 19 -20 8 -6 -10 -9 -8 -9 9 0 24 10 28 28 10 9 -9 12 -8 12 5 0 9 5 17
12 17 6 0 8 -3 5 -7z m71 -13 c4 -12 3 -13 -10 -2 -9 7 -24 9 -33 5 -13 -4
-16 -3 -11 6 10 16 48 10 54 -9z m38 11 c-4 -5 0 -12 6 -14 8 -3 6 -6 -4 -6
-10 -1 -18 6 -18 14 0 8 5 15 11 15 5 0 8 -4 5 -9z m51 -26 c0 -19 -4 -35 -9
-35 -4 0 -8 5 -8 10 0 6 -5 10 -11 10 -5 0 -7 -6 -3 -12 5 -10 3 -10 -7 0 -9
9 -10 15 -3 20 6 4 13 15 17 25 11 29 24 19 24 -18z m78 25 c3 -5 1 -10 -4
-10 -6 0 -11 5 -11 10 0 6 2 10 4 10 3 0 8 -4 11 -10z m-478 -26 c-3 -3 -12
-4 -19 -1 -8 3 -5 6 6 6 11 1 17 -2 13 -5z m483 -5 c0 6 5 11 11 11 6 0 9 -6
6 -14 -3 -8 -1 -17 6 -19 7 -2 -5 -3 -25 -3 -21 1 -38 2 -38 3 0 1 3 9 6 17 5
13 9 14 20 5 10 -8 14 -8 14 0z m-175 -18 c-8 -14 -42 -14 -51 0 -4 7 0 9 14
5 11 -4 23 -2 27 4 4 6 9 9 12 6 3 -2 2 -9 -2 -15z m-305 -7 c0 -2 -7 -4 -15
-4 -8 0 -15 4 -15 10 0 5 7 7 15 4 8 -4 15 -8 15 -10z"/>
<path d="M1680 1352 c0 -14 11 -21 26 -15 21 8 17 23 -6 23 -11 0 -20 -4 -20
-8z"/>
<path d="M1750 1350 c0 -5 9 -10 20 -10 11 0 20 5 20 10 0 6 -9 10 -20 10 -11
0 -20 -4 -20 -10z"/>
<path d="M1670 1299 c0 -22 32 -43 65 -43 33 0 65 21 65 44 0 3 -29 5 -65 5
-36 0 -65 -3 -65 -6z"/>
<path d="M2180 1375 c0 -8 9 -15 20 -15 11 0 20 7 20 15 0 8 -9 15 -20 15 -11
0 -20 -7 -20 -15z"/>
<path d="M2270 1300 c-11 -7 -12 -12 -3 -21 14 -14 46 -4 41 13 -6 16 -20 19
-38 8z"/>
<path d="M2775 800 c3 -5 10 -10 16 -10 5 0 9 5 9 10 0 6 -7 10 -16 10 -8 0
-12 -4 -9 -10z"/>
<path d="M22 498 c8 -23 8 -32 -2 -38 -11 -7 -14 -35 -9 -82 2 -18 20 -24 33
-11 4 4 13 8 19 8 7 1 40 7 75 14 62 14 69 31 12 30 -23 0 -23 -1 -5 -9 18 -8
17 -9 -7 -9 -14 -1 -28 4 -30 10 -4 12 -58 -6 -69 -23 -4 -7 -9 -7 -13 1 -7
11 64 50 91 51 6 0 11 9 10 20 -1 23 0 22 -49 11 -32 -7 -37 -6 -41 11 -5 17
-2 19 20 13 20 -5 24 -3 20 9 -4 11 -1 13 11 10 13 -4 12 -2 -2 7 -15 9 -21 9
-24 1 -2 -7 -9 -9 -15 -5 -28 17 -35 12 -25 -19z m68 -102 c0 -3 -4 -8 -10
-11 -5 -3 -10 -1 -10 4 0 6 5 11 10 11 6 0 10 -2 10 -4z"/>
<path d="M318 503 c6 -2 18 -2 25 0 6 3 1 5 -13 5 -14 0 -19 -2 -12 -5z"/>
<path d="M238 478 c6 -6 18 -8 28 -6 14 3 12 5 -9 10 -19 3 -25 2 -19 -4z"/>
<path d="M175 470 c-4 -6 -10 -8 -15 -5 -5 3 -11 1 -15 -5 -7 -11 9 -13 43 -4
12 4 22 10 22 15 0 12 -27 11 -35 -1z"/>
<path d="M258 433 c6 -2 18 -2 25 0 6 3 1 5 -13 5 -14 0 -19 -2 -12 -5z"/>
<path d="M208 423 c7 -3 16 -2 19 1 4 3 -2 6 -13 5 -11 0 -14 -3 -6 -6z"/>
<path d="M398 393 c7 -3 16 -2 19 1 4 3 -2 6 -13 5 -11 0 -14 -3 -6 -6z"/>
<path d="M398 373 c7 -3 16 -2 19 1 4 3 -2 6 -13 5 -11 0 -14 -3 -6 -6z"/>
<path d="M10 275 c0 -14 5 -25 10 -25 6 0 10 11 10 25 0 14 -4 25 -10 25 -5 0
-10 -11 -10 -25z"/>
</g>
</svg>
