<?xml version="1.0" standalone="no"?>
<!DOCTYPE svg PUBLIC "-//W3C//DTD SVG 20010904//EN"
 "http://www.w3.org/TR/2001/REC-SVG-20010904/DTD/svg10.dtd">
<svg version="1.0" xmlns="http://www.w3.org/2000/svg"
 width="312.000000pt" height="160.000000pt" viewBox="0 0 312.000000 160.000000"
 preserveAspectRatio="xMidYMid meet">

<g transform="translate(0.000000,160.000000) scale(0.100000,-0.100000)"
fill="#000000" stroke="none">
<path d="M751 1422 c-7 -99 -15 -188 -18 -200 -5 -21 -10 -22 -72 -16 -36 4
-106 1 -156 -5 -49 -7 -180 -14 -290 -17 l-200 -5 0 -312 c0 -385 0 -386 28
-380 12 3 32 10 44 16 24 11 36 6 39 -16 1 -9 -13 -13 -48 -12 -29 0 -52 -5
-56 -13 -5 -6 -9 -111 -10 -232 l-1 -220 254 0 c139 0 260 3 269 6 9 3 16 12
16 20 0 8 7 14 15 14 8 0 15 9 15 20 0 11 4 20 9 20 14 0 7 -27 -12 -48 -17
-19 -17 -20 5 -26 13 -3 178 -5 368 -5 190 1 337 3 328 6 -31 8 -21 33 12 33
24 0 30 -4 28 -18 -3 -15 7 -17 68 -20 64 -3 72 -1 77 17 6 25 0 31 -32 32
-21 0 -23 2 -8 8 17 6 16 8 -9 20 -36 16 -21 26 54 34 48 6 52 4 52 -14 0 -12
-8 -23 -20 -26 -11 -3 -17 -9 -14 -14 3 -5 10 -7 15 -4 5 4 9 1 9 -4 0 -6 -8
-11 -17 -11 -15 0 -16 -2 -3 -10 13 -8 12 -10 -2 -10 -10 0 -18 -4 -18 -10 0
-7 185 -10 538 -9 295 1 524 5 507 9 -30 8 -30 8 8 9 20 0 37 -3 37 -9 0 -5
15 -10 33 -9 25 0 28 2 13 8 -18 7 -18 8 5 14 35 10 39 9 39 -8 0 -13 25 -15
183 -13 l182 3 3 39 c5 58 -4 87 -26 79 -14 -5 -15 -4 -6 8 6 8 12 29 12 48 0
19 6 37 11 41 8 4 10 140 9 441 l-3 434 -35 2 c-19 2 -69 8 -110 15 -41 6 -99
10 -129 9 -53 -2 -109 13 -123 33 -23 34 -10 36 197 36 l205 0 0 -25 c0 -32 4
-31 40 5 l30 31 0 124 0 125 -264 0 c-303 0 -281 -7 -284 98 -3 64 -22 50 -22
-16 0 -32 -5 -63 -12 -70 -9 -9 -138 -12 -520 -12 l-507 0 40 -65 41 -65 -22
-35 c-13 -21 -30 -35 -41 -35 -11 0 -30 -5 -41 -11 -14 -8 -23 -8 -31 0 -14
14 -57 15 -57 1 0 -5 -6 -7 -13 -4 -7 2 -58 0 -112 -7 -55 -6 -113 -12 -130
-14 -16 -1 -34 -4 -40 -5 -5 -1 -24 -1 -40 0 -18 0 -40 -7 -53 -18 -21 -18
-84 -24 -99 -8 -3 3 -12 1 -18 -4 -15 -12 -17 1 -40 215 -21 192 -22 195 -43
195 -17 0 -20 -17 -31 -178z m1023 -6 c42 -18 66 -51 66 -93 0 -52 -64 -100
-116 -87 -33 8 -74 60 -74 93 0 41 43 90 88 100 1 1 18 -5 36 -13z m321 -26
c0 -10 -8 -14 -23 -12 -23 4 -52 -13 -52 -30 0 -5 9 -4 19 2 27 14 37 13 55
-6 35 -34 9 -94 -40 -94 -59 0 -88 96 -43 141 24 24 84 24 84 -1z m105 -60 c0
-64 -3 -80 -15 -80 -12 0 -15 13 -15 57 0 42 -3 54 -11 46 -6 -6 -18 -9 -26
-6 -11 4 -8 12 13 34 45 48 54 39 54 -51z m85 45 c0 -27 -3 -30 -30 -30 -21 0
-31 5 -33 18 -6 33 6 49 35 45 24 -3 28 -8 28 -33z m36 -22 c-21 -32 -43 -68
-50 -80 -6 -13 -16 -23 -21 -23 -14 0 83 159 97 160 7 0 -5 -26 -26 -57z m162
35 c13 -20 -6 -48 -34 -48 -15 0 -19 7 -19 36 0 31 3 35 21 32 12 -2 27 -10
32 -20z m45 15 c-10 -2 -18 -9 -18 -14 0 -5 8 -10 18 -10 16 -1 16 -2 0 -6
-10 -2 -18 -8 -18 -13 0 -5 8 -11 18 -13 13 -4 11 -5 -5 -6 -20 -1 -23 4 -23
34 0 30 3 35 23 34 16 -1 18 -2 5 -6z m-633 -51 c16 -10 16 -49 1 -61 -10 -8
-17 -7 -26 4 -11 13 -10 15 6 9 19 -5 19 -5 0 10 -28 23 -10 59 19 38z m475
-37 c26 -32 -13 -81 -47 -59 -35 22 -23 74 17 74 10 0 23 -7 30 -15z m88 -12
c-10 -2 -18 -9 -18 -14 0 -5 8 -10 18 -10 16 -1 16 -2 0 -6 -10 -2 -18 -8 -18
-13 0 -5 8 -11 18 -13 13 -4 11 -5 -5 -6 -20 -1 -23 4 -23 34 0 30 3 35 23 34
16 -1 18 -2 5 -6z m87 -3 c4 -6 13 -5 24 2 26 16 51 3 51 -27 0 -29 -25 -43
-49 -28 -11 7 -21 7 -32 0 -34 -21 -74 18 -49 48 14 17 46 20 55 5z m135 -7
c0 10 5 17 10 17 6 0 10 -5 10 -10 0 -6 7 -6 19 1 26 17 51 4 51 -26 0 -30
-25 -43 -51 -27 -13 9 -19 8 -23 -1 -3 -8 -11 -3 -24 12 l-20 25 -5 -25 c-3
-16 -5 -12 -6 15 -1 38 -1 39 19 21 18 -16 20 -16 20 -2z m136 -5 l7 -23 8 23
c13 34 29 26 29 -13 0 -19 -4 -35 -10 -35 -5 0 -10 6 -10 13 0 8 -4 7 -10 -3
-8 -12 -11 -11 -17 10 l-7 25 -7 -25 c-6 -22 -7 -20 -8 13 -1 41 14 50 25 15z
m71 -30 c-2 -13 -4 -5 -4 17 -1 22 1 32 4 23 2 -10 2 -28 0 -40z m69 16 c12
-30 12 -30 -20 -30 -33 0 -33 0 -23 33 12 39 26 38 43 -3z m-489 -90 c0 -13
-11 -15 -71 -9 -39 4 -85 7 -103 9 -18 1 -35 5 -39 9 -4 4 42 7 103 7 93 0
110 -2 110 -16z m-502 -224 c-3 -5 -11 -10 -16 -10 -6 0 -7 5 -4 10 3 6 11 10
16 10 6 0 7 -4 4 -10z m59 -5 c-4 -8 -10 -15 -15 -15 -4 0 -6 7 -3 15 4 8 10
15 15 15 4 0 6 -7 3 -15z m-421 -16 c-6 -6 -9 -18 -6 -25 3 -8 -1 -14 -11 -14
-10 0 -13 6 -9 18 9 24 25 43 31 37 3 -3 1 -10 -5 -16z m-116 5 c-3 -3 -12 -4
-19 -1 -8 3 -5 6 6 6 11 1 17 -2 13 -5z m1183 -14 c0 -5 -4 -10 -10 -10 -5 0
-10 5 -10 10 0 6 5 10 10 10 6 0 10 -4 10 -10z m-1307 -47 c-7 -3 -9 -12 -6
-21 4 -14 3 -14 -5 -3 -6 8 -17 11 -26 8 -9 -4 -15 -1 -13 6 2 14 37 26 52 19
5 -3 4 -7 -2 -9z m447 7 c0 -5 -4 -10 -10 -10 -5 0 -10 5 -10 10 0 6 5 10 10
10 6 0 10 -4 10 -10z m385 -10 c3 -5 1 -10 -4 -10 -6 0 -11 5 -11 10 0 6 2 10
4 10 3 0 8 -4 11 -10z m-1155 -10 c0 -5 -5 -10 -11 -10 -5 0 -7 5 -4 10 3 6 8
10 11 10 2 0 4 -4 4 -10z m170 -11 l65 -2 -55 -7 c-63 -8 -120 -2 -120 12 0 6
10 8 23 4 12 -3 51 -6 87 -7z m-170 -39 c12 -8 11 -10 -7 -10 -13 0 -23 5 -23
10 0 13 11 13 30 0z m413 3 c-7 -2 -21 -2 -30 0 -10 3 -4 5 12 5 17 0 24 -2
18 -5z m37 -3 c0 -5 -2 -10 -4 -10 -3 0 -8 5 -11 10 -3 6 -1 10 4 10 6 0 11
-4 11 -10z m810 6 c0 -3 -4 -8 -10 -11 -5 -3 -10 -1 -10 4 0 6 5 11 10 11 6 0
10 -2 10 -4z m80 -6 c0 -5 -5 -10 -11 -10 -5 0 -7 5 -4 10 3 6 8 10 11 10 2 0
4 -4 4 -10z m-1672 -76 c-4 -30 -1 -33 24 -36 31 -3 26 -21 -9 -32 -19 -6 -23
-4 -23 13 0 13 -7 21 -17 22 -17 1 -17 2 0 6 13 3 17 16 18 51 1 26 3 39 6 28
3 -10 3 -33 1 -52z m1562 56 c0 -5 -4 -10 -10 -10 -5 0 -10 5 -10 10 0 6 5 10
10 10 6 0 10 -4 10 -10z m37 -6 c-3 -3 -12 -4 -19 -1 -8 3 -5 6 6 6 11 1 17
-2 13 -5z m93 -3 c0 -11 -50 -24 -58 -16 -8 8 19 25 41 25 9 0 17 -4 17 -9z
m-1296 -17 c17 -16 22 -54 8 -54 -17 0 -51 41 -46 55 8 19 19 19 38 -1z m-114
-16 c0 -5 -9 -4 -20 2 -11 6 -20 12 -20 14 0 2 9 2 20 -1 11 -3 20 -9 20 -15z
m1884 13 c3 -5 -1 -12 -10 -15 -20 -8 -29 -1 -19 13 8 13 22 14 29 2z m-2127
-23 c-3 -8 -6 -5 -6 6 -1 11 2 17 5 13 3 -3 4 -12 1 -19z m1539 3 c-10 -16
-46 -20 -46 -5 0 8 10 14 26 14 14 0 23 -4 20 -9z m-2061 -31 c3 -5 -3 -10
-15 -10 -12 0 -18 5 -15 10 3 6 10 10 15 10 5 0 12 -4 15 -10z m50 0 c-3 -5
-11 -10 -16 -10 -6 0 -7 5 -4 10 3 6 11 10 16 10 6 0 7 -4 4 -10z m1917 -5 c0
-5 -5 -11 -11 -13 -6 -2 -11 4 -11 13 0 9 5 15 11 13 6 -2 11 -8 11 -13z
m-1837 -5 c-3 -5 -13 -10 -21 -10 -8 0 -14 5 -14 10 0 6 9 10 21 10 11 0 17
-4 14 -10z m115 0 c0 -5 -9 -10 -19 -10 -11 0 -23 5 -26 10 -4 6 5 10 19 10
14 0 26 -4 26 -10z m810 0 c-8 -5 -22 -10 -30 -10 -13 0 -13 1 0 10 8 5 22 10
30 10 13 0 13 -1 0 -10z m72 -5 c0 -5 -5 -11 -11 -13 -6 -2 -11 4 -11 13 0 9
5 15 11 13 6 -2 11 -8 11 -13z m193 5 c-3 -5 -13 -10 -21 -10 -8 0 -14 5 -14
10 0 6 9 10 21 10 11 0 17 -4 14 -10z m715 -10 c0 -15 -7 -20 -24 -20 -27 0
-41 14 -31 30 3 6 17 10 31 10 17 0 24 -5 24 -20z m-1446 -2 c-5 -8 -2 -9 9
-5 10 3 17 2 17 -3 0 -6 -11 -10 -25 -10 -26 0 -34 15 -12 23 18 8 19 8 11 -5z
m166 -7 c0 -5 -7 -11 -15 -15 -15 -5 -20 5 -8 17 9 10 23 9 23 -2z m-572 -23
c6 -1 12 -5 12 -10 0 -15 -47 -8 -61 9 -13 15 -11 16 11 9 14 -4 31 -8 38 -8z
m1305 -16 c-18 -5 -27 3 -18 17 4 7 10 7 20 -2 11 -10 11 -13 -2 -15z m244 22
c-3 -3 -12 -4 -19 -1 -8 3 -5 6 6 6 11 1 17 -2 13 -5z m-1697 -14 c0 -5 -7
-10 -16 -10 -8 0 -12 5 -9 10 3 6 10 10 16 10 5 0 9 -4 9 -10z m392 -12 c-7
-7 -16 -7 -28 0 -14 8 -13 10 10 10 18 0 24 -4 18 -10z m595 6 c-3 -3 -12 -4
-19 -1 -8 3 -5 6 6 6 11 1 17 -2 13 -5z m300 -9 c8 -22 -6 -33 -18 -15 -8 13
-13 11 -29 -9 -19 -22 -20 -22 -20 -3 0 35 55 57 67 27z m-432 -5 c-3 -5 -13
-10 -21 -10 -8 0 -14 5 -14 10 0 6 9 10 21 10 11 0 17 -4 14 -10z m-515 -8 c0
-12 -49 -37 -56 -29 -9 9 19 36 39 37 9 0 17 -4 17 -8z m122 -1 c-8 -5 -14
-21 -13 -37 0 -16 0 -39 1 -51 0 -16 6 -23 19 -23 18 0 19 6 16 60 -4 58 -3
60 20 60 18 0 23 -4 19 -15 -4 -8 -11 -12 -18 -8 -6 3 -6 1 2 -8 13 -15 17
-43 4 -35 -5 3 -9 -1 -9 -9 0 -8 5 -11 10 -8 6 4 8 0 4 -10 -3 -10 -2 -17 4
-17 6 0 9 -5 7 -11 -2 -6 -23 -13 -46 -15 -33 -3 -42 -1 -42 11 0 26 -26 28
-75 6 -50 -22 -80 -18 -46 6 12 8 26 11 33 7 7 -4 8 -3 4 4 -7 11 5 16 31 13
6 -1 14 3 18 9 3 5 -1 10 -9 10 -10 0 -13 6 -10 15 4 8 17 15 30 15 17 0 24 6
24 20 0 12 7 20 18 20 13 0 14 -2 4 -9z m117 -13 c9 -24 4 -48 -9 -48 -5 0 -6
9 -3 20 3 11 0 27 -7 35 -9 11 -9 15 -1 15 6 0 15 -10 20 -22z m516 12 c-3 -5
-14 -10 -23 -9 -14 0 -13 2 3 9 27 11 27 11 20 0z m322 -20 c-30 -24 -43 -25
-50 -6 -6 14 6 18 62 25 7 0 2 -8 -12 -19z m-252 1 c-15 -14 -55 -23 -55 -13
0 14 7 17 36 20 17 1 24 -1 19 -7z m-925 -5 c0 -3 -4 -8 -10 -11 -5 -3 -10 -1
-10 4 0 6 5 11 10 11 6 0 10 -2 10 -4z m1240 0 c0 -2 -7 -6 -15 -10 -8 -3 -15
-1 -15 4 0 6 7 10 15 10 8 0 15 -2 15 -4z m-1473 -22 c-3 -3 -12 -4 -19 -1 -8
3 -5 6 6 6 11 1 17 -2 13 -5z m1423 -4 c0 -5 -21 -9 -47 -9 l-48 2 40 7 c22 4
43 8 48 9 4 0 7 -3 7 -9z m-280 -10 c-19 -13 -30 -13 -30 0 0 6 10 10 23 10
18 0 19 -2 7 -10z m-565 -20 c3 -5 -1 -10 -10 -10 -9 0 -13 5 -10 10 3 6 8 10
10 10 2 0 7 -4 10 -10z m790 -1 c4 -6 13 -8 21 -5 8 3 14 1 14 -4 0 -6 -6 -10
-14 -10 -8 0 -22 -3 -32 -7 -12 -4 -15 -3 -10 6 6 9 0 10 -21 6 l-28 -6 25 15
c30 18 37 19 45 5z m80 1 c-3 -5 -13 -10 -21 -10 -8 0 -14 5 -14 10 0 6 9 10
21 10 11 0 17 -4 14 -10z m-448 -6 c-3 -3 -12 -4 -19 -1 -8 3 -5 6 6 6 11 1
17 -2 13 -5z m243 -14 c0 -5 -4 -10 -10 -10 -5 0 -10 5 -10 10 0 6 5 10 10 10
6 0 10 -4 10 -10z m-957 -20 c29 -23 29 -54 1 -57 -18 -3 -18 -2 -1 5 18 7 18
9 2 22 -15 12 -19 12 -30 -3 -6 -9 -15 -14 -18 -10 -12 12 -7 21 16 28 l22 8
-23 4 c-12 2 -20 9 -17 14 9 14 20 11 48 -11z m297 10 c0 -5 -4 -10 -10 -10
-5 0 -10 5 -10 10 0 6 5 10 10 10 6 0 10 -4 10 -10z m445 -11 c-8 -12 -52 -12
-60 0 -3 5 7 11 22 13 33 4 45 0 38 -13z m120 11 c4 -6 1 -9 -7 -8 -7 2 -12
-3 -10 -11 2 -10 -4 -12 -20 -7 -13 3 -32 6 -44 6 -11 0 -21 6 -21 13 0 15 93
22 102 7z m-945 -10 c0 -5 -4 -10 -10 -10 -5 0 -10 5 -10 10 0 6 5 10 10 10 6
0 10 -4 10 -10z m747 4 c-3 -3 -12 -4 -19 -1 -8 3 -5 6 6 6 11 1 17 -2 13 -5z
m-987 -34 c0 -5 -2 -10 -4 -10 -3 0 -8 5 -11 10 -3 6 -1 10 4 10 6 0 11 -4 11
-10z m92 -5 c-5 -18 -51 -24 -67 -8 -22 22 -19 24 28 21 23 -2 41 -7 39 -13z
m1041 3 c36 -1 64 -5 62 -8 -2 -4 -30 -6 -62 -4 -84 3 -83 3 -83 15 0 5 4 8 8
5 5 -3 38 -6 75 -8z m277 -9 c0 -5 -6 -9 -13 -9 -8 0 -14 6 -14 14 0 8 6 12
14 9 7 -3 13 -9 13 -14z m-970 1 c0 -13 -20 -13 -40 0 -12 8 -9 10 13 10 15 0
27 -4 27 -10z m880 -6 c0 -2 -9 -4 -20 -4 -11 0 -20 4 -20 9 0 5 9 7 20 4 11
-3 20 -7 20 -9z m147 10 c-3 -3 -12 -4 -19 -1 -8 3 -5 6 6 6 11 1 17 -2 13 -5z
m-1277 -54 c6 -11 7 -20 3 -20 -15 1 -43 27 -36 33 11 12 22 8 33 -13z m217
-7 c-8 -7 -37 9 -31 19 3 5 12 4 20 -3 8 -6 13 -14 11 -16z m107 21 c9 -3 16
-17 16 -31 0 -14 4 -22 10 -18 6 4 8 11 5 16 -4 5 12 9 34 9 39 0 55 13 29 23
-8 4 -7 6 3 6 14 1 18 -15 24 -94 4 -51 4 -99 0 -105 -3 -6 -45 -10 -101 -10
l-94 0 0 74 c0 41 -4 78 -10 81 -16 10 -12 45 5 45 8 0 15 -4 15 -10 0 -5 14
-10 30 -10 32 0 41 16 13 23 -10 3 -13 5 -6 6 6 0 18 -2 27 -5z m-666 -23 c3
-8 -1 -12 -9 -9 -7 2 -15 10 -17 17 -3 8 1 12 9 9 7 -2 15 -10 17 -17z m452
-1 c-24 -15 -36 -11 -14 4 10 8 21 12 24 10 2 -3 -2 -9 -10 -14z m80 -39 l34
-29 -53 4 c-30 2 -55 5 -57 7 -2 1 -1 13 3 25 7 30 31 27 73 -7z m27 23 c-3
-3 -12 -4 -19 -1 -8 3 -5 6 6 6 11 1 17 -2 13 -5z m2287 -20 c3 -8 1 -14 -5
-14 -6 0 -7 -4 -4 -10 3 -6 -4 -10 -18 -10 -20 0 -23 4 -20 23 5 26 38 34 47
11z m-414 -34 c0 -11 -2 -20 -5 -20 -2 0 -9 9 -15 20 -9 16 -8 20 5 20 8 0 15
-9 15 -20z m-45 0 c-3 -5 -12 -10 -18 -10 -7 0 -6 4 3 10 19 12 23 12 15 0z
m292 4 c-3 -3 -12 -4 -19 -1 -8 3 -5 6 6 6 11 1 17 -2 13 -5z m-647 -8 c0 -2
-7 -7 -16 -10 -8 -3 -12 -2 -9 4 6 10 25 14 25 6z m-1172 -68 l0 -43 -12 29
c-8 16 -11 37 -9 47 8 31 20 12 21 -33z m372 42 c0 -5 -4 -10 -10 -10 -5 0
-10 5 -10 10 0 6 5 10 10 10 6 0 10 -4 10 -10z m776 -37 c-11 -11 -19 6 -11
24 8 17 8 17 12 0 3 -10 2 -21 -1 -24z m271 -20 c-13 -18 -21 -16 -33 10 -17
37 -5 51 20 25 15 -16 19 -27 13 -35z m233 50 c-1 -5 -10 -19 -21 -32 -17 -21
-22 -22 -29 -10 -7 10 -4 15 10 17 11 2 20 10 20 18 0 8 5 14 10 14 6 0 10 -3
10 -7z m254 -52 c-6 -6 -94 -9 -94 -3 0 2 10 17 21 34 l21 29 29 -27 c16 -15
26 -30 23 -33z m-2763 40 c-7 -5 -10 -14 -6 -21 4 -7 -4 -4 -19 5 -34 22 -33
25 7 25 22 0 28 -3 18 -9z m1249 -10 c0 -10 -9 -21 -20 -24 -15 -4 -20 0 -20
14 0 12 5 16 15 13 8 -4 15 -1 15 5 0 6 2 11 5 11 3 0 5 -8 5 -19z m1177 -7
c-3 -3 -12 -4 -19 -1 -8 3 -5 6 6 6 11 1 17 -2 13 -5z m-347 -24 c0 -12 -5
-17 -13 -14 -8 3 -14 11 -14 19 0 8 6 15 14 15 7 0 13 -9 13 -20z m-854 -36
c-4 -9 -9 -15 -11 -12 -3 3 -3 13 1 22 4 9 9 15 11 12 3 -3 3 -13 -1 -22z
m224 4 c0 -13 -23 -5 -28 10 -2 7 2 10 12 6 9 -3 16 -11 16 -16z m-313 -20
c-3 -7 -5 -2 -5 12 0 14 2 19 5 13 2 -7 2 -19 0 -25z m663 -12 c0 -41 -8 -49
-28 -29 -13 13 -17 13 -21 2 -3 -8 -16 -15 -28 -16 -20 -2 -23 2 -23 31 0 21
6 36 15 40 8 3 15 1 15 -4 0 -6 7 -10 16 -10 8 0 13 4 9 9 -5 10 24 20 38 14
4 -2 7 -19 7 -37z m877 24 c-3 -11 -1 -23 5 -26 7 -4 6 -9 -1 -14 -16 -9 -4
-35 22 -49 21 -11 21 -11 1 -6 -12 3 -39 6 -60 7 -51 1 -64 13 -64 59 l0 38
48 4 c26 2 49 4 51 5 2 1 1 -7 -2 -18z m48 10 c3 -5 1 -10 -4 -10 -6 0 -11 5
-11 10 0 6 2 10 4 10 3 0 8 -4 11 -10z m-2028 -16 c63 2 91 0 90 -8 -1 -6 8
-12 21 -14 13 -2 21 -9 19 -15 -2 -7 -11 -11 -21 -9 -9 2 -16 -2 -16 -8 0 -5
5 -10 12 -10 6 0 9 -2 7 -4 -3 -3 -22 -1 -44 4 -22 5 -44 5 -50 1 -5 -4 -28
-6 -49 -5 -22 2 -47 -1 -58 -7 -16 -9 -18 -5 -18 43 0 29 4 48 8 41 5 -9 35
-11 99 -9z m384 6 c5 0 9 -9 9 -20 0 -11 -4 -20 -9 -20 -5 0 -17 -3 -27 -7
-11 -4 -15 -3 -10 5 3 6 2 13 -4 17 -5 3 -10 -1 -10 -9 0 -19 -14 -28 -32 -21
-25 10 -16 34 14 40 15 4 28 11 28 17 0 6 7 7 16 4 9 -3 20 -6 25 -6z m406 4
c-3 -3 -12 -4 -19 -1 -8 3 -5 6 6 6 11 1 17 -2 13 -5z m660 -14 c18 0 33 -4
33 -10 0 -5 -12 -10 -26 -10 -14 0 -32 -7 -41 -15 -10 -11 -31 -15 -66 -13
-46 3 -51 6 -58 30 -7 27 -7 27 49 30 32 2 61 0 67 -4 5 -5 24 -8 42 -8z m680
4 c-3 -3 -12 -4 -19 -1 -8 3 -5 6 6 6 11 1 17 -2 13 -5z m-599 -16 c15 -15 16
-28 2 -28 -5 0 -10 6 -10 14 0 8 -6 17 -12 19 -7 3 -8 6 -2 6 5 1 15 -4 22
-11z m76 -3 c-4 -8 -8 -15 -10 -15 -2 0 -4 7 -4 15 0 8 4 15 10 15 5 0 7 -7 4
-15z m-1442 -20 c3 -16 1 -25 -7 -25 -8 0 -10 9 -7 25 2 14 6 25 7 25 1 0 5
-11 7 -25z m1943 15 c-3 -5 -16 -10 -28 -9 -20 1 -20 2 3 9 14 4 26 8 28 9 2
1 0 -3 -3 -9z m-1355 -11 c0 -6 -9 -13 -20 -16 -11 -3 -20 -9 -20 -13 0 -4
-20 -7 -45 -6 -40 0 -45 3 -45 23 0 22 4 23 65 23 40 0 65 -4 65 -11z m754
-15 c4 -11 1 -14 -11 -12 -9 2 -18 9 -21 16 -6 18 25 15 32 -4z m593 0 c-3 -3
-12 -4 -19 -1 -8 3 -5 6 6 6 11 1 17 -2 13 -5z m-2417 -35 c0 -10 -4 -19 -9
-19 -5 0 -8 11 -8 25 0 13 3 22 8 19 5 -3 9 -14 9 -25z m2380 9 c0 -7 -5 -20
-11 -28 -9 -13 -10 -13 -6 1 3 9 0 22 -6 28 -8 8 -7 11 6 11 9 0 17 -6 17 -12z
m80 3 c0 -15 -59 -19 -64 -4 -4 9 5 13 29 13 19 0 35 -4 35 -9z m-605 -11 c3
-5 1 -10 -4 -10 -6 0 -11 5 -11 10 0 6 2 10 4 10 3 0 8 -4 11 -10z m-740 -33
c1 -15 -2 -27 -7 -27 -4 0 -8 6 -8 14 0 8 -3 22 -7 32 -4 11 -2 15 7 12 8 -2
15 -16 15 -31z m-875 8 c0 -8 -4 -15 -9 -15 -5 0 -12 -10 -14 -22 -3 -14 -5
-9 -6 15 -1 27 3 37 14 37 8 0 15 -7 15 -15z m650 5 c0 -5 -9 -10 -20 -10 -11
0 -20 -4 -20 -10 0 -5 -9 -10 -20 -10 -27 0 -25 28 3 33 41 8 57 7 57 -3z
m423 3 c-23 -2 -64 -2 -90 0 -26 2 -7 3 42 3 50 0 71 -1 48 -3z m154 1 c-3 -3
-12 -4 -19 -1 -8 3 -5 6 6 6 11 1 17 -2 13 -5z m253 -14 c0 -14 -5 -18 -17
-13 -15 6 -16 4 -5 -9 11 -14 9 -16 -12 -14 -13 0 -22 4 -20 7 2 4 -3 9 -11
13 -27 10 -5 36 31 36 27 0 34 -4 34 -20z m790 4 c0 -8 -5 -12 -10 -9 -6 4 -8
11 -5 16 9 14 15 11 15 -7z m-2020 -4 c0 -13 -20 -13 -40 0 -12 8 -9 10 13 10
15 0 27 -4 27 -10z m298 -11 c2 -13 -5 -16 -39 -15 -43 1 -66 -18 -32 -27 15
-4 14 -5 -4 -6 -17 -1 -22 5 -25 27 -3 26 -5 27 -63 27 -33 0 -62 -3 -65 -6
-3 -3 -16 0 -30 7 -20 11 -3 13 115 11 120 -2 140 -4 143 -18z m-395 4 c-13
-2 -33 -2 -45 0 -13 2 -3 4 22 4 25 0 35 -2 23 -4z m1167 -8 c0 -2 -9 -3 -19
-2 -11 0 -18 5 -15 9 4 6 34 0 34 -7z m55 5 c17 -7 15 -9 -12 -9 -18 -1 -33 4
-33 9 0 12 17 12 45 0z m-1510 -10 c3 -5 1 -10 -4 -10 -6 0 -11 5 -11 10 0 6
2 10 4 10 3 0 8 -4 11 -10z m1322 4 c-3 -3 -12 -4 -19 -1 -8 3 -5 6 6 6 11 1
17 -2 13 -5z m-767 -24 c0 -5 -4 -10 -10 -10 -5 0 -10 5 -10 10 0 6 5 10 10
10 6 0 10 -4 10 -10z m120 -15 c0 -8 -9 -15 -20 -15 -11 0 -20 7 -20 15 0 8 9
15 20 15 11 0 20 -7 20 -15z m1257 8 c-15 -2 -25 -8 -22 -13 3 -4 -4 -6 -16
-3 -29 8 -3 23 36 21 l30 -1 -28 -4z m366 -10 c-13 -2 -33 -2 -45 0 -13 2 -3
4 22 4 25 0 35 -2 23 -4z"/>
<path d="M1704 1356 c-8 -22 3 -33 18 -18 9 9 9 15 0 24 -9 9 -13 7 -18 -6z"/>
<path d="M1765 1360 c-7 -12 2 -30 16 -30 5 0 9 9 9 20 0 21 -15 27 -25 10z"/>
<path d="M1680 1300 c1 -14 18 -30 43 -39 32 -12 60 -2 76 27 8 15 3 17 -55
17 -35 0 -64 -2 -64 -5z"/>
<path d="M2026 1321 c-11 -18 6 -42 28 -39 29 4 29 42 -1 46 -11 2 -24 -1 -27
-7z"/>
<path d="M2240 1375 c0 -8 7 -15 15 -15 8 0 15 7 15 15 0 8 -7 15 -15 15 -8 0
-15 -7 -15 -15z"/>
<path d="M2440 1374 c0 -31 23 -28 28 4 2 15 -2 22 -12 22 -11 0 -16 -9 -16
-26z"/>
<path d="M2324 1299 c-10 -17 13 -36 27 -22 12 12 4 33 -11 33 -5 0 -12 -5
-16 -11z"/>
<path d="M2503 1284 c-8 -20 9 -36 30 -28 21 8 22 30 1 38 -22 8 -24 8 -31
-10z"/>
<path d="M2573 1284 c-8 -21 13 -42 28 -27 13 13 5 43 -11 43 -6 0 -13 -7 -17
-16z"/>
<path d="M2723 1284 c-8 -21 13 -42 28 -27 13 13 5 43 -11 43 -6 0 -13 -7 -17
-16z"/>
<path d="M2931 1274 c0 -11 3 -14 6 -6 3 7 2 16 -1 19 -3 4 -6 -2 -5 -13z"/>
<path d="M265 470 c3 -5 8 -10 11 -10 2 0 4 5 4 10 0 6 -5 10 -11 10 -5 0 -7
-4 -4 -10z"/>
<path d="M698 315 c-3 -72 -2 -75 20 -75 20 0 22 4 22 63 0 57 -11 87 -31 87
-4 0 -9 -34 -11 -75z"/>
<path d="M779 372 c-12 -14 -13 -22 -5 -35 8 -13 7 -20 -4 -27 -12 -8 -12 -10
-1 -10 10 0 12 -8 8 -30 -6 -28 -5 -30 26 -30 l33 0 -1 53 c-3 91 -22 119 -56
79z"/>
<path d="M2111 184 c0 -11 3 -14 6 -6 3 7 2 16 -1 19 -3 4 -6 -2 -5 -13z"/>
</g>
</svg>
